<svg width="38" height="38" viewBox="0 0 38 38" fill="none" xmlns="http://www.w3.org/2000/svg">
<path d="M26.125 8.50993V2.74609H11.875V8.50993H0V35.2539H38V8.50993H26.125ZM35.7734 17.1025L23.5273 20.3212V18.5303H22.59V10.7365H35.7734V17.1025ZM20.3635 10.7365V18.5303H17.7168V10.7365H20.3635ZM21.3008 20.7688V22.9582H16.6992V20.7688H21.3008ZM17.7168 25.1848H20.3635V27.3084H17.7168V25.1848ZM14.1016 4.97266H23.8984V8.50993H14.1016V4.97266ZM2.22656 10.7365H15.4903V18.5303H14.4727V20.3212L2.22656 17.1025V10.7365ZM35.7734 33.0276H2.22656V19.4044L14.4727 22.6234V25.1848H15.4903V29.535H22.59V25.1848H23.5273V22.6234L35.7734 19.4044V33.0276Z" fill="#745285"/>
</svg>
