<svg width="58" height="58" viewBox="0 0 58 58" fill="none" xmlns="http://www.w3.org/2000/svg">
<path d="M53.4688 14.5H39.875V11.7812C39.8725 9.61883 39.0124 7.54568 37.4834 6.01662C35.9543 4.48756 33.8812 3.62745 31.7188 3.625H26.2812C24.1188 3.62745 22.0457 4.48756 20.5166 6.01662C18.9876 7.54568 18.1275 9.61883 18.125 11.7812V14.5H4.53125C3.81045 14.5008 3.1194 14.7875 2.60971 15.2972C2.10003 15.8069 1.81332 16.4979 1.8125 17.2188V49.8438C1.81386 51.0451 2.29169 52.1968 3.14117 53.0463C3.99065 53.8958 5.1424 54.3736 6.34375 54.375H51.6562C52.8576 54.3736 54.0093 53.8958 54.8588 53.0463C55.7083 52.1968 56.1861 51.0451 56.1875 49.8438V17.2188C56.1867 16.4979 55.9 15.8069 55.3903 15.2972C54.8806 14.7875 54.1896 14.5008 53.4688 14.5ZM36.25 14.5V12.6875H38.0625V14.5H36.25ZM34.4375 14.5H23.5625V11.7812C23.5633 11.0604 23.85 10.3694 24.3597 9.85971C24.8694 9.35003 25.5604 9.06332 26.2812 9.0625H31.7188C32.4396 9.06332 33.1306 9.35003 33.6403 9.85971C34.15 10.3694 34.4367 11.0604 34.4375 11.7812V14.5ZM26.2812 5.4375H31.7188C33.2436 5.43954 34.7168 5.98996 35.8694 6.98825C37.022 7.98654 37.777 9.36609 37.9967 10.875H36.1588C35.9486 9.85227 35.3922 8.93329 34.5834 8.27296C33.7746 7.61264 32.7629 7.25135 31.7188 7.25H26.2812C25.2371 7.25135 24.2254 7.61264 23.4166 8.27296C22.6078 8.93329 22.0514 9.85227 21.8412 10.875H20.0033C20.2229 9.36609 20.978 7.98654 22.1306 6.98825C23.2832 5.98996 24.7564 5.43954 26.2812 5.4375ZM19.9375 12.6875H21.75V14.5H19.9375V12.6875ZM54.375 49.8438C54.3742 50.5646 54.0875 51.2556 53.5778 51.7653C53.0681 52.275 52.3771 52.5617 51.6562 52.5625H6.34375C5.62295 52.5617 4.9319 52.275 4.42221 51.7653C3.91253 51.2556 3.62582 50.5646 3.625 49.8438V31.9035C4.35031 33.1062 5.26887 34.1811 6.34375 35.0851V47.125C6.34456 47.8458 6.63125 48.5369 7.14094 49.0466C7.65063 49.5562 8.34169 49.8429 9.0625 49.8438H48.9375C49.6583 49.8429 50.3494 49.5562 50.8591 49.0466C51.3687 48.5369 51.6554 47.8458 51.6562 47.125V35.0851C52.7311 34.1811 53.6497 33.1062 54.375 31.9035V49.8438ZM43.5 36.25H36.25V38.0625H43.5C45.7279 38.0652 47.9168 37.4775 49.8438 36.3593V47.125C49.8435 47.3653 49.7479 47.5956 49.578 47.7655C49.4081 47.9354 49.1778 48.031 48.9375 48.0312H9.0625C8.82223 48.031 8.59188 47.9354 8.42199 47.7655C8.25209 47.5956 8.15653 47.3653 8.15625 47.125V36.3593C10.0832 37.4775 12.2721 38.0652 14.5 38.0625H21.75V36.25H14.5C11.6168 36.2467 8.85257 35.0999 6.81381 33.0612C4.77506 31.0224 3.62826 28.2582 3.625 25.375V17.2188C3.62527 16.9785 3.72084 16.7481 3.89074 16.5782C4.06063 16.4083 4.29098 16.3128 4.53125 16.3125H53.4688C53.709 16.3128 53.9394 16.4083 54.1093 16.5782C54.2792 16.7481 54.3747 16.9785 54.375 17.2188V25.375C54.3717 28.2582 53.2249 31.0224 51.1862 33.0612C49.1474 35.0999 46.3832 36.2467 43.5 36.25Z" fill="white"/>
<path d="M29 22.6562C27.5584 22.6579 26.1763 23.2313 25.1569 24.2507C24.1375 25.27 23.5641 26.6521 23.5625 28.0938V43.5C23.5625 43.619 23.5859 43.7369 23.6315 43.8468C23.677 43.9568 23.7438 44.0567 23.8279 44.1408C23.9121 44.225 24.012 44.2917 24.1219 44.3373C24.2319 44.3828 24.3497 44.4063 24.4688 44.4062H33.5312C33.6503 44.4063 33.7681 44.3828 33.8781 44.3373C33.988 44.2917 34.0879 44.225 34.1721 44.1408C34.2562 44.0567 34.323 43.9568 34.3685 43.8468C34.4141 43.7369 34.4375 43.619 34.4375 43.5V28.0938C34.4359 26.6521 33.8625 25.27 32.8431 24.2507C31.8237 23.2313 30.4416 22.6579 29 22.6562ZM29 24.4688C29.9611 24.4698 30.8825 24.8521 31.5621 25.5317C32.2417 26.2113 32.6239 27.1327 32.625 28.0938V29.9062H25.375V28.0938C25.3761 27.1327 25.7583 26.2113 26.4379 25.5317C27.1175 24.8521 28.0389 24.4698 29 24.4688ZM32.625 31.7188V33.5312H25.375V31.7188H32.625ZM25.375 42.5938V35.3438H32.625V42.5938H25.375Z" fill="white"/>
<path d="M29.9062 38.0625H28.0938C27.8534 38.0625 27.6229 38.158 27.4529 38.3279C27.283 38.4979 27.1875 38.7284 27.1875 38.9688C27.1875 39.2091 27.283 39.4396 27.4529 39.6096C27.6229 39.7795 27.8534 39.875 28.0938 39.875H29.9062C30.1466 39.875 30.3771 39.7795 30.5471 39.6096C30.717 39.4396 30.8125 39.2091 30.8125 38.9688C30.8125 38.7284 30.717 38.4979 30.5471 38.3279C30.3771 38.158 30.1466 38.0625 29.9062 38.0625Z" fill="white"/>
</svg>
