<svg width="116" height="116" viewBox="0 0 116 116" fill="none" xmlns="http://www.w3.org/2000/svg">
<path d="M106.938 29H79.75V23.5625C79.7451 19.2377 78.0249 15.0914 74.9668 12.0332C71.9086 8.97512 67.7623 7.25491 63.4375 7.25H52.5625C48.2377 7.25491 44.0914 8.97512 41.0332 12.0332C37.9751 15.0914 36.2549 19.2377 36.25 23.5625V29H9.0625C7.62089 29.0016 6.2388 29.5751 5.21943 30.5944C4.20006 31.6138 3.62665 32.9959 3.625 34.4375V99.6875C3.62771 102.09 4.58338 104.394 6.28234 106.093C7.9813 107.792 10.2848 108.747 12.6875 108.75H103.312C105.715 108.747 108.019 107.792 109.718 106.093C111.417 104.394 112.372 102.09 112.375 99.6875V34.4375C112.373 32.9959 111.8 31.6138 110.781 30.5944C109.761 29.5751 108.379 29.0016 106.938 29ZM72.5 29V25.375H76.125V29H72.5ZM68.875 29H47.125V23.5625C47.1266 22.1209 47.7001 20.7388 48.7194 19.7194C49.7388 18.7001 51.1209 18.1266 52.5625 18.125H63.4375C64.8791 18.1266 66.2612 18.7001 67.2806 19.7194C68.2999 20.7388 68.8734 22.1209 68.875 23.5625V29ZM52.5625 10.875H63.4375C66.4871 10.8791 69.4335 11.9799 71.7387 13.9765C74.0439 15.9731 75.5541 18.7322 75.9935 21.75H72.3176C71.8972 19.7045 70.7844 17.8666 69.1668 16.5459C67.5492 15.2253 65.5257 14.5027 63.4375 14.5H52.5625C50.4743 14.5027 48.4508 15.2253 46.8332 16.5459C45.2156 17.8666 44.1028 19.7045 43.6824 21.75H40.0065C40.4459 18.7322 41.9561 15.9731 44.2613 13.9765C46.5665 11.9799 49.5129 10.8791 52.5625 10.875ZM39.875 25.375H43.5V29H39.875V25.375ZM108.75 99.6875C108.748 101.129 108.175 102.511 107.156 103.531C106.136 104.55 104.754 105.123 103.312 105.125H12.6875C11.2459 105.123 9.8638 104.55 8.84443 103.531C7.82506 102.511 7.25165 101.129 7.25 99.6875V63.8069C8.70062 66.2123 10.5377 68.3623 12.6875 70.1703V94.25C12.6891 95.6916 13.2625 97.0737 14.2819 98.0931C15.3013 99.1125 16.6834 99.6859 18.125 99.6875H97.875C99.3166 99.6859 100.699 99.1125 101.718 98.0931C102.737 97.0737 103.311 95.6916 103.312 94.25V70.1703C105.462 68.3623 107.299 66.2123 108.75 63.8069V99.6875ZM87 72.5H72.5V76.125H87C91.4558 76.1303 95.8335 74.955 99.6875 72.7186V94.25C99.687 94.7305 99.4958 95.1912 99.156 95.531C98.8162 95.8708 98.3555 96.062 97.875 96.0625H18.125C17.6445 96.062 17.1838 95.8708 16.844 95.531C16.5042 95.1912 16.3131 94.7305 16.3125 94.25V72.7186C20.1665 74.955 24.5442 76.1303 29 76.125H43.5V72.5H29C23.2335 72.4935 17.7051 70.1999 13.6276 66.1224C9.55013 62.0449 7.25652 56.5165 7.25 50.75V34.4375C7.25055 33.957 7.44169 33.4963 7.78148 33.1565C8.12127 32.8167 8.58196 32.6255 9.0625 32.625H106.938C107.418 32.6255 107.879 32.8167 108.219 33.1565C108.558 33.4963 108.749 33.957 108.75 34.4375V50.75C108.743 56.5165 106.45 62.0449 102.372 66.1224C98.2949 70.1999 92.7665 72.4935 87 72.5Z" fill="#331B4D"/>
<path d="M58 45.3125C55.1168 45.3158 52.3526 46.4626 50.3138 48.5013C48.2751 50.5401 47.1283 53.3043 47.125 56.1875V87C47.125 87.238 47.1719 87.4737 47.263 87.6936C47.354 87.9135 47.4875 88.1133 47.6559 88.2816C47.8242 88.45 48.024 88.5835 48.2439 88.6745C48.4638 88.7656 48.6995 88.8125 48.9375 88.8125H67.0625C67.3005 88.8125 67.5362 88.7656 67.7561 88.6745C67.976 88.5835 68.1758 88.45 68.3441 88.2816C68.5125 88.1133 68.646 87.9135 68.737 87.6936C68.8281 87.4737 68.875 87.238 68.875 87V56.1875C68.8717 53.3043 67.7249 50.5401 65.6862 48.5013C63.6474 46.4626 60.8832 45.3158 58 45.3125ZM58 48.9375C59.9222 48.9397 61.765 49.7042 63.1241 51.0634C64.4833 52.4225 65.2478 54.2653 65.25 56.1875V59.8125H50.75V56.1875C50.7522 54.2653 51.5167 52.4225 52.8759 51.0634C54.235 49.7042 56.0778 48.9397 58 48.9375ZM65.25 63.4375V67.0625H50.75V63.4375H65.25ZM50.75 85.1875V70.6875H65.25V85.1875H50.75Z" fill="#FF7B59"/>
<path d="M59.8125 76.125H56.1875C55.7068 76.125 55.2458 76.316 54.9059 76.6559C54.566 76.9958 54.375 77.4568 54.375 77.9375C54.375 78.4182 54.566 78.8792 54.9059 79.2191C55.2458 79.559 55.7068 79.75 56.1875 79.75H59.8125C60.2932 79.75 60.7542 79.559 61.0941 79.2191C61.434 78.8792 61.625 78.4182 61.625 77.9375C61.625 77.4568 61.434 76.9958 61.0941 76.6559C60.7542 76.316 60.2932 76.125 59.8125 76.125Z" fill="#331B4D"/>
</svg>
