<svg width="58" height="58" viewBox="0 0 58 58" fill="none" xmlns="http://www.w3.org/2000/svg">
<path d="M0.431152 9.13654C0.431152 4.04579 4.59469 -0.0725503 9.70232 0.000969257C14.6499 0.0721099 18.6728 4.12962 18.7041 9.07752C18.7217 11.8485 17.5052 14.3354 15.5724 16.0222C15.3684 16.2002 15.3979 16.5251 15.6309 16.6629L17.3524 17.6816C17.6308 17.8463 17.514 18.2729 17.1905 18.2729L9.39476 18.271C4.42862 18.1786 0.431152 14.1247 0.431152 9.13654Z" fill="#7ACAA6"/>
<path d="M17.3525 17.6816L15.6308 16.663C15.399 16.5259 15.3669 16.2015 15.5698 16.0245C17.5247 14.3198 18.7474 11.7967 18.7031 8.98887C18.6264 4.13216 14.6956 0.145456 9.84023 0.00396783C9.1517 -0.0160829 8.47972 0.0402178 7.83209 0.164714C12.0288 0.969237 15.2272 4.66844 15.2551 9.07746C15.2685 11.2127 14.5493 13.1793 13.3343 14.7411C12.6006 15.6841 12.839 17.0517 13.8674 17.6602L13.9034 17.6815C14.1787 17.8444 14.067 18.2629 13.7517 18.2719L17.1905 18.2727C17.5139 18.2729 17.6308 17.8462 17.3525 17.6816Z" fill="#57BE92"/>
<path d="M44.949 33.1637H24.2224C19.0457 33.1637 16.2128 27.1307 19.5191 23.1473L19.703 22.9257C21.1595 21.1709 21.9568 18.962 21.9568 16.6815V12.6846C21.9569 5.67902 27.6359 0 34.6415 0C41.647 0 47.326 5.67902 47.326 12.6846V16.8164C47.326 19.1209 48.1401 21.3513 49.6245 23.114C52.9721 27.0893 50.1462 33.1637 44.949 33.1637Z" fill="#C59191"/>
<path d="M55.8442 43.4355V57.138H13.3275V43.5385C13.3275 40.4596 15.1729 37.6808 18.0094 36.4868L24.8731 33.503L27.1841 32.4982C28.9377 31.7358 30.0716 30.006 30.0716 28.0938V27.2068H39.099V28.0485C39.099 29.9686 40.2443 31.7052 42.0103 32.4619L51.2937 36.4415C54.0601 37.6672 55.8442 40.4086 55.8442 43.4355Z" fill="white"/>
<path d="M24.8726 36.77C27.2151 37.47 30.6631 38.2165 34.8659 38.143C38.8093 38.0741 42.0465 37.3073 44.2989 36.5879L45.4182 33.9227L42.01 32.4619C40.2444 31.7051 39.0996 29.9691 39.0996 28.048V27.207H30.0722V28.0938C30.0722 30.0058 28.938 31.7355 27.1848 32.4978L24.4243 33.6981L24.8726 36.77Z" fill="#FFCEBF"/>
<path d="M51.2933 36.4409L44.3002 33.4436L44.299 33.4437V57.1377H55.8443V43.4356C55.8443 40.409 54.0603 37.6671 51.2933 36.4409Z" fill="#8795DE"/>
<path d="M24.8731 33.5029V57.1379H13.3275V43.5385C13.3275 40.4595 15.1729 37.6807 18.0094 36.4868L24.8731 33.5029Z" fill="#8795DE"/>
<path d="M37.7151 32.162C38.7536 32.162 39.7433 31.9534 40.6453 31.5771C39.6777 30.6839 39.0995 29.4129 39.0995 28.0482V27.2072H30.0721V28.0938C30.0721 28.7845 29.9234 29.4511 29.6516 30.0572C31.0186 31.3603 32.8679 32.1618 34.9055 32.1618H37.7151V32.162Z" fill="#FFB09E"/>
<path d="M43.6084 13.627V21.095C43.6084 25.3023 40.1978 28.7129 35.9906 28.7129H33.1811C28.9739 28.7129 25.5633 25.3022 25.5633 21.095V13.627C25.5633 10.89 27.782 8.67114 30.5191 8.67114H38.6527C41.3897 8.67126 43.6084 10.89 43.6084 13.627Z" fill="#FFCEBF"/>
<path d="M43.6084 17.5125C43.605 17.5228 43.6008 17.5327 43.5978 17.5433C43.3224 18.4943 42.5997 20.2907 40.8531 21.6375C40.0399 22.2647 39.1122 22.7178 38.0961 22.9845C37.6355 23.1054 37.36 23.5767 37.4808 24.0373C37.5826 24.4246 37.9318 24.681 38.3144 24.681C38.3867 24.681 38.4604 24.6718 38.5338 24.6526C39.7744 24.327 40.9091 23.772 41.9063 23.0032C42.5949 22.4721 43.1522 21.8856 43.6034 21.2958C43.6051 21.229 43.6085 21.1625 43.6085 21.0952V17.5125H43.6084Z" fill="#7A6D79"/>
<path d="M37.1505 25.368H35.1299C34.2102 25.368 33.4645 24.6224 33.4645 23.7027C33.4645 22.783 34.2102 22.0374 35.1299 22.0374H37.1505C38.0702 22.0374 38.8158 22.783 38.8158 23.7027C38.8157 24.6225 38.0702 25.368 37.1505 25.368Z" fill="#685E68"/>
<path d="M36.3861 6.69455C36.5795 4.25448 38.9156 2.63512 41.1515 1.79639C44.85 4.01251 47.3261 8.05903 47.3261 12.6844V13.5565C47.1216 13.5994 46.9182 13.637 46.717 13.667C45.4853 13.851 44.4364 13.7713 43.7198 13.667C39.1021 13.0519 36.1524 9.64157 36.3861 6.69455Z" fill="#B98080"/>
<path d="M34.6415 0C37.5062 0 40.1488 0.949977 42.2723 2.55166C41.213 4.39486 38.7806 8.03912 34.2196 10.737C30.8336 12.7399 27.6409 13.413 25.6748 13.667H21.9571V12.6844C21.957 5.67902 27.636 0 34.6415 0V0Z" fill="#C59191"/>
<path d="M48.8209 57.1376H21.2195L19.6971 42.7764C19.5892 41.7578 20.3877 40.8701 21.412 40.8701H48.6286C49.6529 40.8701 50.4514 41.7578 50.3434 42.7764L48.8209 57.1376Z" fill="#EFEDEF"/>
<path d="M48.6285 40.8701H45.1795C46.2038 40.8701 47.0023 41.7578 46.8944 42.7764L45.372 57.1378H48.8209L50.3433 42.7764C50.4514 41.7578 49.6529 40.8701 48.6285 40.8701Z" fill="#E5E1E5"/>
<path d="M57.1504 58H0.849609C0.380285 58 0 57.6196 0 57.1504C0 56.6812 0.380285 56.3008 0.849609 56.3008H57.1504C57.6197 56.3008 58 56.6812 58 57.1504C58 57.6196 57.6197 58 57.1504 58Z" fill="#C9BFC8"/>
<path d="M35.0202 51.4182C36.3536 51.4182 37.4345 50.3373 37.4345 49.004C37.4345 47.6706 36.3536 46.5897 35.0202 46.5897C33.6869 46.5897 32.606 47.6706 32.606 49.004C32.606 50.3373 33.6869 51.4182 35.0202 51.4182Z" fill="#C9BFC8"/>
<path d="M6.11884 9.99866C6.59501 9.99866 6.98102 9.61265 6.98102 9.13648C6.98102 8.6603 6.59501 8.27429 6.11884 8.27429C5.64267 8.27429 5.25665 8.6603 5.25665 9.13648C5.25665 9.61265 5.64267 9.99866 6.11884 9.99866Z" fill="white"/>
<path d="M9.56775 9.99866C10.0439 9.99866 10.4299 9.61265 10.4299 9.13648C10.4299 8.6603 10.0439 8.27429 9.56775 8.27429C9.09158 8.27429 8.70557 8.6603 8.70557 9.13648C8.70557 9.61265 9.09158 9.99866 9.56775 9.99866Z" fill="white"/>
<path d="M13.0168 9.99866C13.493 9.99866 13.879 9.61265 13.879 9.13648C13.879 8.6603 13.493 8.27429 13.0168 8.27429C12.5406 8.27429 12.1546 8.6603 12.1546 9.13648C12.1546 9.61265 12.5406 9.99866 13.0168 9.99866Z" fill="white"/>
</svg>
