<svg width="32" height="32" viewBox="0 0 32 32" fill="none" xmlns="http://www.w3.org/2000/svg">
<circle cx="16" cy="16" r="16" fill="#745285"/>
<path d="M13.48 16.088L14.888 11H11.72L9.864 15.608C9.128 17.368 9 17.976 9 18.808C9 20.632 10.312 21.88 12.104 21.88C13.864 21.88 15.176 20.664 15.176 18.808C15.176 17.496 14.536 16.536 13.48 16.088ZM21.032 16.088L22.44 11H19.272L17.416 15.608C16.68 17.368 16.552 17.976 16.552 18.808C16.552 20.632 17.864 21.88 19.656 21.88C21.416 21.88 22.728 20.664 22.728 18.808C22.728 17.496 22.088 16.536 21.032 16.088Z" fill="white"/>
</svg>
