<svg width="38" height="38" viewBox="0 0 38 38" fill="none" xmlns="http://www.w3.org/2000/svg">
<path d="M37.0868 4.22409C37.0868 1.8949 35.1919 0 32.8627 0H11.2636C8.97438 0 7.11195 1.86243 7.11195 4.15161V30.3039H0.890625V33.9133C0.890625 36.1666 2.72406 38 4.97729 38H26.6413C29.6768 38 30.7283 35.3916 30.8602 34.0122L30.8654 33.9594V7.69614H37.0868V4.22409ZM4.97729 35.7734C3.95157 35.7734 3.11719 34.9391 3.11719 33.9133V32.5304H22.4271V34.065L22.432 34.1177C22.437 34.1693 22.4436 34.2227 22.4515 34.2775C22.4535 34.2934 22.4561 34.3096 22.4587 34.3259C22.4651 34.3685 22.4726 34.412 22.4807 34.4563C22.4836 34.4717 22.4863 34.4868 22.4894 34.5024C22.5007 34.5607 22.5135 34.6199 22.528 34.6802C22.5306 34.6918 22.5338 34.7034 22.5367 34.7147C22.5492 34.7651 22.5628 34.8161 22.5773 34.868C22.5825 34.8869 22.588 34.9057 22.5938 34.9246C22.6089 34.9765 22.6254 35.0289 22.6431 35.0817C22.6472 35.0945 22.6509 35.1069 22.6553 35.1197C22.6773 35.1837 22.7011 35.2487 22.7263 35.3139C22.733 35.3304 22.7396 35.347 22.7463 35.3635C22.7669 35.4145 22.7883 35.4655 22.811 35.5166C22.8194 35.536 22.8278 35.5554 22.8368 35.5746C22.866 35.6392 22.8968 35.7039 22.9298 35.7682C22.9307 35.77 22.9316 35.7717 22.9324 35.7734H4.97729ZM28.6389 33.8342C28.6168 33.9754 28.5278 34.4491 28.2602 34.8944C27.8999 35.494 27.3856 35.7734 26.6413 35.7734C25.9389 35.7734 25.4425 35.5395 25.09 35.0391C25.0665 35.0057 25.0436 34.9712 25.0216 34.9356C24.9891 34.8834 24.9592 34.8309 24.932 34.7784C24.9047 34.7263 24.8801 34.6741 24.8575 34.6228C24.8462 34.5972 24.8357 34.5717 24.8253 34.5468C24.714 34.2708 24.6685 34.0313 24.6537 33.938V30.3039H9.33852V4.15161C9.33852 3.09023 10.2022 2.22656 11.2639 2.22656H29.1416C29.1146 2.27643 29.0894 2.32687 29.0645 2.3779C29.059 2.38921 29.0535 2.40051 29.0479 2.41182C29.0219 2.46661 28.9966 2.5217 28.9731 2.57736C28.9708 2.58287 28.9688 2.58809 28.9665 2.5936C28.9444 2.64607 28.9236 2.69913 28.9036 2.75276C28.8995 2.76349 28.8954 2.77451 28.8914 2.78552C28.8711 2.84148 28.8517 2.8983 28.8337 2.9557C28.8299 2.9673 28.8264 2.97919 28.823 2.99107C28.8059 3.04645 28.7899 3.1024 28.7751 3.15894C28.774 3.16357 28.7725 3.16821 28.7714 3.17285C28.756 3.23228 28.7424 3.2923 28.7296 3.3526C28.727 3.36594 28.7241 3.37927 28.7215 3.39261C28.7093 3.45262 28.6986 3.51292 28.689 3.57381C28.6876 3.58279 28.6864 3.59178 28.6853 3.60077C28.6768 3.65701 28.6696 3.71384 28.6635 3.77095C28.6624 3.78168 28.6609 3.79269 28.6597 3.80342C28.6537 3.86517 28.649 3.92722 28.6458 3.98984C28.645 4.00317 28.6444 4.01651 28.6438 4.02985C28.6409 4.09421 28.6389 4.15886 28.6389 4.22409V33.8342ZM34.8602 5.46957H30.8654V4.22409C30.8654 3.1227 31.7613 2.22656 32.8627 2.22656C33.9641 2.22656 34.8602 3.1227 34.8602 4.22409V5.46957Z" fill="#745285"/>
<path d="M15.0006 5.4696H22.7686V7.69617H15.0006V5.4696Z" fill="#745285"/>
<path d="M12.3287 9.698H25.7374V11.9246H12.3287V9.698Z" fill="#745285"/>
<path d="M12.3287 13.9261H25.7374V16.1527H12.3287V13.9261Z" fill="#745285"/>
<path d="M12.3287 18.1543H25.7374V20.3809H12.3287V18.1543Z" fill="#745285"/>
<path d="M22.4483 21.9192C20.5661 21.9192 19.0351 23.4505 19.0351 25.3324C19.0351 27.2142 20.5661 28.7456 22.4483 28.7456C24.3301 28.7456 25.8612 27.2142 25.8612 25.3324C25.8612 23.4505 24.3301 21.9192 22.4483 21.9192ZM22.4483 26.519C21.7939 26.519 21.2617 25.9867 21.2617 25.3324C21.2617 24.6783 21.7939 24.146 22.4483 24.146C23.1023 24.146 23.6346 24.6783 23.6346 25.3324C23.6346 25.9867 23.1023 26.519 22.4483 26.519Z" fill="#745285"/>
</svg>
