<svg width="38" height="38" viewBox="0 0 38 38" fill="none" xmlns="http://www.w3.org/2000/svg">
<path d="M37.0352 15.5355V11.2865H38V8.75636L19 0L0 8.75636V11.2865H1.78125V15.5355H3.75095V26.2787H1.78125V30.5277H0V37.931H38V30.5277H37.0352V26.2787H34.1748V15.5355H37.0352ZM19 2.45154L33.339 9.05991H4.661L19 2.45154ZM34.8086 11.2865V13.3089H4.00781V11.2865H34.8086ZM15.3462 26.2787H10.9844V15.5355H15.3462V26.2787ZM17.5727 15.5355H20.353V26.2787H17.5727V15.5355ZM22.5796 15.5355H26.9414V26.2787H22.5796V15.5355ZM5.97751 15.5355H8.75781V26.2787H5.97751V15.5355ZM35.7734 35.7044H2.22656V32.7542H35.7734V35.7044ZM34.8086 28.5052V30.5277H4.00781V28.5052H34.8086ZM31.9483 26.2787H29.168V15.5355H31.9483V26.2787Z" fill="#745285"/>
</svg>
