<svg width="32" height="32" viewBox="0 0 32 32" fill="none" xmlns="http://www.w3.org/2000/svg">
<g clip-path="url(#clip0)">
<path d="M13.581 1.24972C16.32 -3.60784 17.4849 7.16229 23.372 8.58397C31.3673 10.5147 34.3806 12.8719 28.0642 16.2278C18.6625 21.2229 33.5261 27.6702 29.0813 31.5804C26.254 34.0677 21.4588 24.6855 15.7274 24.6115C4.43247 26.2572 -6.46222 28.8651 6.24453 15.3602C8.31841 12.692 4.81784 11.0216 4.55028 7.9176C4.82697 4.79616 10.8829 9.34679 13.581 1.24972Z" fill="url(#paint0_linear)"/>
<path opacity="0.1" d="M30.8018 12.9529L28.9023 11.0533L29.9501 10.0054C30.0722 9.88333 30.0722 9.68552 29.9501 9.56346L27.3904 7.00371C27.2683 6.88165 27.0705 6.88165 26.9485 7.00371L22.8539 11.0983H21.1703V9.01021C21.1703 8.25027 20.552 7.63196 19.7921 7.63196H12.208C11.6423 7.63196 11.1553 7.97471 10.9431 8.46333H7.48065L6.55652 6.75702C6.47434 6.60527 6.28465 6.54883 6.1329 6.63102L2.94971 8.35496C2.79796 8.43715 2.74152 8.62683 2.82371 8.77858L4.29802 11.5009C4.09202 11.7238 3.96509 12.0208 3.96509 12.3483V14.5846C3.96496 14.5848 3.9649 14.5848 3.96477 14.5849L1.40502 17.1446C1.28296 17.2667 1.28296 17.4645 1.40502 17.5866L3.96509 20.1466V26.3065C3.96509 26.9968 4.52471 27.5565 5.21509 27.5565H18.9705V28.1717C18.9705 28.3443 19.1105 28.4842 19.283 28.4842H25.8161C25.9887 28.4842 26.1286 28.3443 26.1286 28.1717V27.5565H26.7846C27.475 27.5565 28.0346 26.9968 28.0346 26.3065V16.0448C28.1099 16.0415 28.1843 16.0121 28.2419 15.9546L30.8016 13.3948C30.9238 13.2728 30.9238 13.075 30.8018 12.9529ZM12.208 8.88202H19.7921C19.8628 8.88202 19.9203 8.93952 19.9203 9.01027V11.0983H12.0797V9.01027C12.0797 8.93958 12.1373 8.88202 12.208 8.88202Z" fill="#0000CC"/>
<path d="M30.8019 11.8004L28.2421 14.3602C28.12 14.4823 27.9222 14.4823 27.8002 14.3602L23.1805 9.74057C23.0585 9.61851 23.0585 9.4207 23.1805 9.29864L25.7403 6.73889C25.8624 6.61682 26.0602 6.61682 26.1822 6.73889L30.8019 11.3585C30.9239 11.4806 30.9239 11.6784 30.8019 11.8004Z" fill="#FFD6BB"/>
<path d="M27.2889 7.84552C26.5557 8.57871 25.3673 8.57914 24.6337 7.84552L25.7403 6.73889C25.8624 6.61682 26.0602 6.61682 26.1822 6.73889L27.2889 7.84552Z" fill="#FFAB66"/>
<path d="M29.3487 13.2535L28.242 14.3601C28.12 14.4822 27.9222 14.4822 27.8001 14.3601L26.6935 13.2535C27.4267 12.5203 28.6155 12.5203 29.3487 13.2535Z" fill="#FFAB66"/>
<path d="M26.9911 11.8281C27.6972 11.8281 28.2696 11.2557 28.2696 10.5496C28.2696 9.84352 27.6972 9.27112 26.9911 9.27112C26.2851 9.27112 25.7126 9.84352 25.7126 10.5496C25.7126 11.2557 26.2851 11.8281 26.9911 11.8281Z" fill="#FF6C6C"/>
<path d="M26.5839 10.9568C26.4619 10.8348 26.4619 10.6368 26.5839 10.5148L26.9564 10.1424C27.0784 10.0204 27.2763 10.0204 27.3983 10.1424C27.5203 10.2644 27.5203 10.4623 27.3983 10.5843L27.0259 10.9568C26.9038 11.0788 26.7059 11.0788 26.5839 10.9568Z" fill="white"/>
<path d="M9.02645 18.052L6.4667 20.6118C6.34464 20.7339 6.14683 20.7339 6.02477 20.6118L1.40515 15.9922C1.28308 15.8701 1.28308 15.6723 1.40515 15.5502L3.96489 12.9905C4.08696 12.8684 4.28477 12.8684 4.40683 12.9905L9.02645 17.6101C9.14845 17.7321 9.14845 17.93 9.02645 18.052Z" fill="#FFD6BB"/>
<path d="M5.51346 14.0971C4.78028 14.8303 3.5919 14.8307 2.85828 14.0971L3.9649 12.9905C4.08696 12.8684 4.28478 12.8684 4.40684 12.9905L5.51346 14.0971Z" fill="#FFAB66"/>
<path d="M7.5734 19.5051L6.46678 20.6117C6.34471 20.7338 6.1469 20.7338 6.02484 20.6117L4.91821 19.5051C5.6514 18.7719 6.84021 18.7719 7.5734 19.5051Z" fill="#FFAB66"/>
<path d="M5.21588 18.0797C5.92197 18.0797 6.49438 17.5073 6.49438 16.8012C6.49438 16.0951 5.92197 15.5227 5.21588 15.5227C4.50978 15.5227 3.93738 16.0951 3.93738 16.8012C3.93738 17.5073 4.50978 18.0797 5.21588 18.0797Z" fill="#FF6C6C"/>
<path d="M4.80854 17.2084C4.68654 17.0864 4.68654 16.8884 4.80854 16.7664L5.18098 16.394C5.30298 16.272 5.50092 16.272 5.62292 16.394C5.74492 16.516 5.74492 16.7139 5.62292 16.8359L5.25048 17.2084C5.12842 17.3304 4.93054 17.3304 4.80854 17.2084Z" fill="white"/>
<path d="M11.0898 14.027H7.46985C7.29729 14.027 7.15735 13.8871 7.15735 13.7145V7.1814C7.15735 7.00883 7.29729 6.8689 7.46985 6.8689H11.0898C11.2624 6.8689 11.4023 7.00883 11.4023 7.1814V13.7145C11.4023 13.8872 11.2624 14.027 11.0898 14.027Z" fill="#FFD6BB"/>
<path d="M11.4024 8.74639C10.3655 8.74639 9.5249 7.90639 9.5249 6.8689H11.0899C11.2625 6.8689 11.4024 7.00883 11.4024 7.1814V8.74639Z" fill="#FFAB66"/>
<path d="M9.03485 14.027H7.46985C7.29729 14.027 7.15735 13.8871 7.15735 13.7145V12.1495C8.19422 12.1495 9.03485 12.9902 9.03485 14.027Z" fill="#FFAB66"/>
<path d="M9.27984 11.7266C9.98594 11.7266 10.5583 11.1542 10.5583 10.4481C10.5583 9.74196 9.98594 9.16956 9.27984 9.16956C8.57375 9.16956 8.00134 9.74196 8.00134 10.4481C8.00134 11.1542 8.57375 11.7266 9.27984 11.7266Z" fill="#FF6C6C"/>
<path d="M8.70386 10.4481C8.70386 10.2756 8.84379 10.1356 9.01636 10.1356H9.54311C9.71567 10.1356 9.85561 10.2756 9.85561 10.4481C9.85561 10.6207 9.71567 10.7606 9.54311 10.7606H9.01636C8.84379 10.7606 8.70386 10.6207 8.70386 10.4481Z" fill="white"/>
<path d="M9.54191 11.331L6.35872 13.0549C6.20697 13.1371 6.01728 13.0807 5.93509 12.9289L2.82391 7.18417C2.74172 7.03242 2.79809 6.84274 2.94991 6.76055L6.13303 5.03667C6.28478 4.95449 6.47447 5.01086 6.55666 5.16267L9.66784 10.9074C9.75003 11.0591 9.69366 11.2488 9.54191 11.331Z" fill="#FFD6BB"/>
<path d="M7.3019 6.5388C6.39015 7.03261 5.25096 6.6943 4.75684 5.78199L6.13302 5.03667C6.28477 4.95449 6.47446 5.01086 6.55665 5.16267L7.3019 6.5388Z" fill="#FFAB66"/>
<path d="M7.73488 12.3097L6.35876 13.055C6.20701 13.1372 6.01732 13.0808 5.93513 12.929L5.18982 11.5529C6.10163 11.059 7.24113 11.3979 7.73488 12.3097Z" fill="#FFAB66"/>
<path d="M6.24591 10.3243C6.952 10.3243 7.52441 9.75194 7.52441 9.04584C7.52441 8.33974 6.952 7.76733 6.24591 7.76733C5.53981 7.76733 4.96741 8.33974 4.96741 9.04584C4.96741 9.75194 5.53981 10.3243 6.24591 10.3243Z" fill="#FF6C6C"/>
<path d="M5.73954 9.32012C5.65735 9.16837 5.71379 8.97868 5.86554 8.89649L6.32873 8.64568C6.48048 8.5635 6.67017 8.61987 6.75235 8.77168C6.83454 8.92343 6.7781 9.11312 6.62635 9.1953L6.16317 9.44611C6.01142 9.52824 5.82173 9.47186 5.73954 9.32012Z" fill="white"/>
<path d="M27.3903 5.40937L29.95 7.96912C30.0721 8.09118 30.0721 8.28899 29.95 8.41106L25.3304 13.0307C25.2084 13.1527 25.0105 13.1527 24.8885 13.0307L22.3287 10.4709C22.2067 10.3489 22.2067 10.1511 22.3287 10.029L26.9484 5.40937C27.0704 5.28737 27.2683 5.28737 27.3903 5.40937Z" fill="#FFD6BB"/>
<path d="M23.4354 8.92249C24.1685 9.65567 24.169 10.844 23.4354 11.5777L22.3287 10.471C22.2067 10.349 22.2067 10.1512 22.3287 10.0291L23.4354 8.92249Z" fill="#FFAB66"/>
<path d="M28.8435 6.86243L29.9501 7.96905C30.0722 8.09111 30.0722 8.28893 29.9501 8.41099L28.8435 9.51761C28.1103 8.78443 28.1103 7.59561 28.8435 6.86243Z" fill="#FFAB66"/>
<path d="M26.1395 10.4984C26.8456 10.4984 27.418 9.92601 27.418 9.21991C27.418 8.51381 26.8456 7.94141 26.1395 7.94141C25.4334 7.94141 24.861 8.51381 24.861 9.21991C24.861 9.92601 25.4334 10.4984 26.1395 10.4984Z" fill="#FF6C6C"/>
<path d="M26.5466 9.62719C26.4246 9.74919 26.2267 9.74919 26.1047 9.62719L25.7322 9.25475C25.6102 9.13275 25.6102 8.93481 25.7322 8.81281C25.8542 8.69081 26.0522 8.69081 26.1742 8.81281L26.5466 9.18525C26.6687 9.30732 26.6687 9.50519 26.5466 9.62719Z" fill="white"/>
<path d="M20.5453 10.129C20.2002 10.129 19.9203 9.84923 19.9203 9.50404V7.41573C19.9203 7.34504 19.8628 7.28748 19.7921 7.28748H12.208C12.1373 7.28748 12.0797 7.34498 12.0797 7.41573V9.50404C12.0797 9.84923 11.7999 10.129 11.4547 10.129C11.1095 10.129 10.8297 9.84923 10.8297 9.50404V7.41573C10.8297 6.65579 11.448 6.03748 12.208 6.03748H19.7921C20.552 6.03748 21.1703 6.65579 21.1703 7.41573V9.50404C21.1703 9.84923 20.8905 10.129 20.5453 10.129Z" fill="#6C6CFF"/>
<path d="M26.7848 25.962H5.21533C4.52496 25.962 3.96533 25.4024 3.96533 24.712V10.7539C3.96533 10.0635 4.52496 9.50391 5.21533 9.50391H26.7848C27.4752 9.50391 28.0348 10.0635 28.0348 10.7539V24.712C28.0348 25.4024 27.4752 25.962 26.7848 25.962Z" fill="#D9D9FF"/>
<path d="M5.52809 23.4494H3.96497V24.7119C3.96497 25.4025 4.52497 25.9619 5.21497 25.9619H6.46684V24.3994H5.52809V23.4494ZM5.21497 9.50427C4.52497 9.50427 3.96497 10.0636 3.96497 10.7543V12.0168H5.52809V11.0668H6.46684V9.50427H5.21497ZM26.472 24.3994H25.5332V25.9619H26.7851C27.4751 25.9619 28.0351 25.4025 28.0351 24.7119V23.4494H26.472V24.3994ZM26.7851 9.50427H25.5332V11.0668H26.472V12.0168H28.0351V10.7543C28.0351 10.0636 27.4751 9.50427 26.7851 9.50427Z" fill="#9494FF"/>
<path d="M26.4723 11.0664V24.3995H5.52779V11.0664H26.4723Z" fill="#B3B3FF"/>
<path d="M16.4794 12.1997H15.2017C15.0291 12.1997 14.8892 12.0598 14.8892 11.8872V9.50391H16.7919V11.8872C16.7919 12.0598 16.652 12.1997 16.4794 12.1997Z" fill="#9494FF"/>
<path d="M16.7919 25.9509H14.8892V23.5676C14.8892 23.3951 15.0291 23.2551 15.2017 23.2551H16.4794C16.6519 23.2551 16.7919 23.3951 16.7919 23.5676V25.9509Z" fill="#9494FF"/>
<path d="M26.1288 22.9573V26.5773C26.1288 26.7498 25.9889 26.8898 25.8163 26.8898H19.2832C19.1106 26.8898 18.9707 26.7498 18.9707 26.5773V22.9573C18.9707 22.7847 19.1106 22.6448 19.2832 22.6448H25.8163C25.9889 22.6448 26.1288 22.7847 26.1288 22.9573Z" fill="#FFD6BB"/>
<path d="M20.8482 22.6448C20.8482 23.6817 20.0082 24.5223 18.9707 24.5223V22.9573C18.9707 22.7847 19.1106 22.6448 19.2832 22.6448H20.8482Z" fill="#FFAB66"/>
<path d="M26.1288 25.0122V26.5772C26.1288 26.7498 25.9889 26.8897 25.8163 26.8897H24.2513C24.2513 25.8528 25.092 25.0122 26.1288 25.0122Z" fill="#FFAB66"/>
<path d="M31.0228 11.1373L29.3445 9.45895L30.1712 8.63233C30.2892 8.51426 30.3542 8.35733 30.3542 8.19039C30.3542 8.02345 30.2892 7.86651 30.1712 7.74845L27.6111 5.18839C27.493 5.07033 27.3361 5.00533 27.1692 5.00533C27.0022 5.00533 26.8452 5.07033 26.7272 5.18839L22.7242 9.19145H21.4828V7.41589C21.4828 6.48358 20.7244 5.72514 19.7921 5.72514H12.208C11.5892 5.72514 11.0473 6.05945 10.7526 6.55683H7.66722L6.83172 5.01408C6.75228 4.86726 6.62035 4.7602 6.46035 4.71264C6.30022 4.66501 6.13141 4.68264 5.98453 4.76214L2.80097 6.48626C2.49791 6.65033 2.38491 7.03045 2.54903 7.33351L3.26703 8.65926C3.34922 8.81101 3.53891 8.86745 3.69066 8.7852C3.84241 8.70301 3.89885 8.51333 3.8166 8.36158L3.0986 7.03583L6.28222 5.3117L8.38341 9.19145H5.21528C4.35372 9.19145 3.65278 9.89239 3.65278 10.754V12.8612L1.18428 15.3297C1.06622 15.4478 1.00122 15.6047 1.00122 15.7716C1.00122 15.9386 1.06622 16.0956 1.18428 16.2136L3.65278 18.6821V24.712C3.65278 25.5736 4.35372 26.2745 5.21528 26.2745H16.8807C17.0532 26.2745 17.1932 26.1346 17.1932 25.962C17.1932 25.7895 17.0532 25.6495 16.8807 25.6495H5.21528C4.69835 25.6495 4.27778 25.229 4.27778 24.712V10.7539C4.27778 10.237 4.69835 9.81639 5.21528 9.81639H26.7848C27.3017 9.81639 27.7223 10.237 27.7223 10.7539V24.7121C27.7223 25.229 27.3017 25.6496 26.7848 25.6496H26.4412V22.9571C26.4412 22.6125 26.1608 22.3321 25.8162 22.3321H19.2835C18.9389 22.3321 18.6585 22.6125 18.6585 22.9571V26.5776C18.6585 26.9222 18.9389 27.2026 19.2835 27.2026H25.8162C26.1608 27.2026 26.4412 26.9222 26.4412 26.5776V26.2745H26.7848C27.6464 26.2745 28.3473 25.5736 28.3473 24.712V14.6715C28.3889 14.646 28.4278 14.6162 28.4628 14.5812L31.0229 12.0211C31.2665 11.7775 31.2665 11.381 31.0228 11.1373ZM1.62622 15.7716L3.65278 13.7451V17.7982L1.62622 15.7716ZM19.2835 26.5776V22.9571H25.8162L25.8166 26.5776H19.2835ZM12.208 6.35008H19.7921C20.3797 6.35008 20.8578 6.82814 20.8578 7.41583V9.19139H20.2328V7.41583C20.2328 7.17283 20.0351 6.97508 19.7921 6.97508H12.208C11.965 6.97508 11.7672 7.17283 11.7672 7.41583V9.19139H11.1422V7.41583C11.1422 6.8282 11.6203 6.35008 12.208 6.35008ZM19.6078 9.19139H12.3922V7.60014H19.6078V9.19139H19.6078ZM8.00566 7.18176H10.5338C10.5232 7.25833 10.5172 7.33639 10.5172 7.41583V9.19139H9.09397L8.00566 7.18176ZM26.7848 9.19139H23.608L27.1692 5.63026L29.7292 8.19033L28.0628 9.8567C27.7798 9.45476 27.3127 9.19139 26.7848 9.19139ZM28.3473 13.813V10.7539C28.3473 10.6606 28.3386 10.5694 28.3228 10.4806L28.9025 9.90089L30.5808 11.5792L28.3473 13.813Z" fill="#0000CC"/>
<path d="M22.5499 26.0458C23.256 26.0458 23.8284 25.4734 23.8284 24.7673C23.8284 24.0612 23.256 23.4888 22.5499 23.4888C21.8438 23.4888 21.2714 24.0612 21.2714 24.7673C21.2714 25.4734 21.8438 26.0458 22.5499 26.0458Z" fill="#FF6C6C"/>
<path d="M22.5498 25.3432C22.3772 25.3432 22.2373 25.2032 22.2373 25.0307V24.5039C22.2373 24.3313 22.3772 24.1914 22.5498 24.1914C22.7224 24.1914 22.8623 24.3313 22.8623 24.5039V25.0307C22.8623 25.2032 22.7224 25.3432 22.5498 25.3432Z" fill="white"/>
<path d="M5.10337 28.6451C5.03893 28.6451 4.97443 28.6252 4.91968 28.5854L4.71706 28.4382L4.5145 28.5854C4.40494 28.665 4.25669 28.665 4.14712 28.5854C4.03762 28.5059 3.99175 28.3648 4.03362 28.236L4.111 27.9979L3.90837 27.8507C3.79887 27.7712 3.753 27.6301 3.79487 27.5014C3.83675 27.3726 3.95669 27.2854 4.09206 27.2854H4.3425L4.41987 27.0472C4.46169 26.9185 4.58169 26.8313 4.71706 26.8313C4.85243 26.8313 4.97243 26.9185 5.01425 27.0472L5.09162 27.2854H5.342C5.47737 27.2854 5.59737 27.3726 5.63918 27.5014C5.681 27.6301 5.63518 27.7712 5.52568 27.8507L5.32312 27.9979L5.4005 28.2361C5.44231 28.3649 5.3965 28.5059 5.287 28.5855C5.23231 28.6252 5.16781 28.6451 5.10337 28.6451Z" fill="#FF9D33"/>
<path d="M23.4977 5.48733C23.4332 5.48733 23.3687 5.46746 23.314 5.42765L23.1114 5.28046L22.9088 5.42765C22.7993 5.50721 22.651 5.50721 22.5414 5.42765C22.4319 5.34808 22.386 5.20702 22.4279 5.07827L22.5053 4.84015L22.3027 4.69302C22.1932 4.61346 22.1473 4.4724 22.1892 4.34365C22.231 4.2149 22.351 4.12771 22.4863 4.12771H22.7368L22.8142 3.88952C22.856 3.76077 22.976 3.67358 23.1114 3.67358C23.2467 3.67358 23.3667 3.76077 23.4085 3.88952L23.4859 4.12771H23.7363C23.8717 4.12771 23.9917 4.2149 24.0335 4.34365C24.0753 4.4724 24.0295 4.61346 23.92 4.69302L23.7174 4.84021L23.7948 5.07833C23.8366 5.20708 23.7908 5.34815 23.6813 5.42771C23.6266 5.46746 23.5621 5.48733 23.4977 5.48733Z" fill="#FF4D4D"/>
<path d="M8.53257 29.0624C8.45257 29.0624 8.37264 29.0319 8.31157 28.9709L8.00133 28.6607L7.69108 28.9709C7.56901 29.0929 7.3712 29.0929 7.24914 28.9709C7.12708 28.8489 7.12708 28.651 7.24914 28.529L7.78039 27.9978C7.90245 27.8757 8.10026 27.8757 8.22232 27.9978L8.75357 28.529C8.87564 28.6511 8.87564 28.8489 8.75357 28.9709C8.69251 29.0319 8.61257 29.0624 8.53257 29.0624Z" fill="#4D4DFF"/>
<path d="M20.9719 3.82965C20.8919 3.82965 20.812 3.79915 20.7509 3.73815L20.4407 3.4279L20.1304 3.73815C20.0083 3.86015 19.8105 3.86015 19.6885 3.73815C19.5664 3.61609 19.5664 3.41821 19.6885 3.29621L20.2197 2.76496C20.3418 2.64296 20.5396 2.64296 20.6617 2.76496L21.1929 3.29621C21.315 3.41827 21.315 3.61615 21.1929 3.73815C21.1318 3.79915 21.0519 3.82965 20.9719 3.82965Z" fill="#FF9D33"/>
<path d="M27.4897 29.0624C27.4097 29.0624 27.3298 29.0319 27.2687 28.9709L26.9585 28.6607L26.6482 28.9709C26.5262 29.0929 26.3284 29.0929 26.2063 28.9709C26.0842 28.8489 26.0842 28.651 26.2063 28.529L26.7375 27.9978C26.8596 27.8757 27.0574 27.8757 27.1795 27.9978L27.7107 28.529C27.8328 28.6511 27.8328 28.8489 27.7107 28.9709C27.6497 29.0319 27.5697 29.0624 27.4897 29.0624Z" fill="#FF9D33"/>
</g>
<defs>
<linearGradient id="paint0_linear" x1="31.0922" y1="34.4912" x2="-2.06884" y2="-0.783966" gradientUnits="userSpaceOnUse">
<stop stop-color="#FFF3EE" stop-opacity="0"/>
<stop offset="0.2938" stop-color="#FFEADE" stop-opacity="0.373"/>
<stop offset="0.7874" stop-color="#FFD6BB"/>
</linearGradient>
<clipPath id="clip0">
<rect width="32" height="32" fill="white"/>
</clipPath>
</defs>
</svg>
