<svg width="32" height="32" viewBox="0 0 32 32" fill="none" xmlns="http://www.w3.org/2000/svg">
<g clip-path="url(#clip0)">
<path d="M1.15408 25.8269C-1.9418 29.14 1.87864 30.8492 4.5577 29.0135C9.24014 25.1155 12.8219 18.2211 15.2401 18.0307C18.9615 18.4054 21.54 24.678 25.7617 23.7462C26.5658 23.5125 27.1991 22.9363 27.8076 22.226C35.3096 13.624 31.7035 13.3624 25.1348 7.56779C19.1322 2.72779 18.0336 0.134669 13.6474 3.43029C9.5032 6.54404 14.2128 9.32917 1.15408 25.8269Z" fill="url(#paint0_linear)"/>
<path opacity="0.1" d="M26.7895 4.28429C26.6608 4.24598 26.5253 4.22542 26.3843 4.22542L8.67115 4.22473C7.88327 4.22473 7.24465 4.86404 7.24465 5.65123V26.7655H4.92321C4.52965 26.7655 4.20996 27.0844 4.20996 27.478V28.6191C4.20996 29.4069 4.84859 30.0455 5.63577 30.0455H23.2803C24.0675 30.0455 24.7061 29.4069 24.7061 28.6198V7.86273H27.0976C27.4911 7.86273 27.8101 7.54373 27.8101 7.15017V5.65117C27.8101 5.00504 27.3795 4.45879 26.7895 4.28429Z" fill="#0000CC"/>
<path d="M27.8101 4.05667V5.55567C27.8101 5.94924 27.4911 6.26824 27.0975 6.26824H24.0078V4.05667C24.0078 3.26948 23.3692 2.63086 22.5813 2.63086H26.3843C26.5253 2.63086 26.6608 2.65142 26.7895 2.68973C27.3795 2.8643 27.8101 3.41055 27.8101 4.05667Z" fill="#FFD6BB"/>
<path d="M26.1326 2.63019C25.3448 2.63019 24.7061 3.2695 24.7061 4.05669V27.0252C24.7061 27.8124 24.0675 28.4509 23.2803 28.4509H7.24463V4.05663C7.24463 3.26944 7.88325 2.63013 8.67113 2.63013H26.1326V2.63019Z" fill="#FFF3EE"/>
<path d="M23.0973 28.451H5.63577C4.84859 28.451 4.20996 27.8123 4.20996 27.0245V25.8835C4.20996 25.4899 4.52965 25.1709 4.92321 25.1709H20.9582C21.3518 25.1709 21.6715 25.4898 21.6715 25.8835V27.0245C21.6715 27.8123 22.3101 28.451 23.0973 28.451Z" fill="#FFD6BB"/>
<path d="M26.3842 2.31836H16.2291C16.0565 2.31836 15.9166 2.4583 15.9166 2.63086C15.9166 2.80342 16.0565 2.94336 16.2291 2.94336H24.7977C24.5454 3.24523 24.3933 3.63361 24.3933 4.05692V18.6568C24.3933 18.8294 24.5332 18.9693 24.7058 18.9693C24.8784 18.9693 25.0183 18.8294 25.0183 18.6568V6.58105H27.0972C27.6627 6.58105 28.1227 6.12098 28.1227 5.55555V4.05692C28.1227 3.0983 27.3428 2.31836 26.3842 2.31836ZM27.4977 5.55555C27.4977 5.77642 27.318 5.95605 27.0972 5.95605H25.0183V4.05692C25.0183 3.44292 25.5179 2.94336 26.1319 2.94336H26.3842C26.9982 2.94336 27.4977 3.44292 27.4977 4.05692V5.55555H27.4977Z" fill="#0000CC"/>
<path d="M24.7058 20.4583C24.5332 20.4583 24.3933 20.5982 24.3933 20.7708V27.0249C24.3933 27.6389 23.8938 28.1384 23.2798 28.1384H23.095C22.4821 28.137 21.9839 27.6381 21.9839 27.0249V25.8841C21.9839 25.3187 21.5238 24.8586 20.9583 24.8586H7.55696V4.05692C7.55696 3.44292 8.05652 2.94336 8.67052 2.94336H14.1151C14.2877 2.94336 14.4276 2.80342 14.4276 2.63086C14.4276 2.4583 14.2877 2.31836 14.1151 2.31836H8.67052C7.71183 2.31836 6.93196 3.0983 6.93196 4.05692V24.8586H4.92308C4.35758 24.8586 3.89758 25.3187 3.89758 25.8841V27.0249C3.89758 27.9835 4.67752 28.7635 5.63608 28.7635L23.2798 28.7634C24.2385 28.7634 25.0183 27.9834 25.0183 27.0249V20.7708C25.0183 20.5982 24.8785 20.4583 24.7058 20.4583ZM4.52252 27.0249V25.8841C4.52252 25.6632 4.70221 25.4836 4.92302 25.4836H20.9583C21.1791 25.4836 21.3588 25.6633 21.3588 25.8841V27.0249C21.3588 27.4482 21.5108 27.8365 21.7631 28.1384L5.63596 28.1385C5.02208 28.1385 4.52252 27.6389 4.52252 27.0249Z" fill="#0000CC"/>
<path d="M27.3921 27.389C27.3121 27.389 27.2321 27.3585 27.1711 27.2975L26.8608 26.9872L26.5505 27.2975C26.4286 27.4195 26.2306 27.4195 26.1086 27.2975C25.9866 27.1754 25.9866 26.9775 26.1086 26.8555L26.6399 26.3243C26.7618 26.2023 26.9598 26.2023 27.0818 26.3243L27.613 26.8555C27.7351 26.9776 27.7351 27.1755 27.613 27.2975C27.5521 27.3585 27.4721 27.389 27.3921 27.389Z" fill="#4D4DFF"/>
<path d="M5.27831 18.8703C5.21387 18.8703 5.14937 18.8504 5.09468 18.8106L4.89206 18.6634L4.68956 18.8106C4.57993 18.8901 4.43168 18.8901 4.32218 18.8106C4.21262 18.731 4.16681 18.59 4.20868 18.4612L4.28599 18.223L4.08343 18.0758C3.97387 17.9963 3.92806 17.8552 3.96993 17.7265C4.01174 17.5977 4.13174 17.5105 4.26712 17.5105H4.51756L4.59493 17.2723C4.63674 17.1436 4.75674 17.0564 4.89212 17.0564C5.02749 17.0564 5.14749 17.1436 5.18931 17.2723L5.26674 17.5105H5.51712C5.6525 17.5105 5.7725 17.5977 5.81431 17.7265C5.85618 17.8552 5.81037 17.9963 5.70087 18.0758L5.49831 18.223L5.57562 18.4612C5.6175 18.59 5.57168 18.731 5.46212 18.8106C5.40724 18.8504 5.34274 18.8703 5.27831 18.8703Z" fill="#4D4DFF"/>
<path d="M27.247 9.90152C27.1826 9.90152 27.1181 9.88165 27.0633 9.84183L26.8608 9.69465L26.6582 9.84183C26.5487 9.9214 26.4004 9.9214 26.2909 9.84183C26.1813 9.76227 26.1355 9.62121 26.1774 9.49246L26.2547 9.25427L26.0521 9.10708C25.9426 9.02752 25.8968 8.88646 25.9387 8.75771C25.9805 8.62896 26.1005 8.54177 26.2359 8.54177H26.4862L26.5637 8.30358C26.6055 8.17483 26.7255 8.08765 26.8609 8.08765C26.9962 8.08765 27.1162 8.17483 27.1581 8.30358L27.2354 8.54171H27.4859C27.6212 8.54171 27.7412 8.6289 27.7831 8.75765C27.8249 8.8864 27.7791 9.02746 27.6696 9.10702L27.467 9.25421L27.5443 9.4924C27.5862 9.62115 27.5404 9.76221 27.4308 9.84177C27.3759 9.88165 27.3114 9.90152 27.247 9.90152Z" fill="#FF4D4D"/>
<path d="M5.72948 15.7939C5.64954 15.7939 5.56948 15.7634 5.50854 15.7024L5.19823 15.3921L4.88792 15.7024C4.76598 15.8244 4.56798 15.8244 4.44604 15.7024C4.32398 15.5803 4.32398 15.3824 4.44604 15.2604L4.97729 14.7292C5.09923 14.6072 5.29723 14.6072 5.41917 14.7292L5.95042 15.2604C6.07248 15.3825 6.07248 15.5804 5.95042 15.7024C5.88948 15.7634 5.80942 15.7939 5.72948 15.7939Z" fill="#FF9D33"/>
<path d="M28.5438 24.7991C28.4639 24.7991 28.3838 24.7686 28.3229 24.7076L28.0126 24.3974L27.7022 24.7076C27.5803 24.8296 27.3823 24.8296 27.2604 24.7076C27.1383 24.5856 27.1383 24.3877 27.2604 24.2657L27.7916 23.7344C27.9136 23.6124 28.1116 23.6124 28.2335 23.7344L28.7647 24.2657C28.8868 24.3878 28.8868 24.5856 28.7647 24.7076C28.7038 24.7686 28.6238 24.7991 28.5438 24.7991Z" fill="#FF4D4D"/>
<path d="M22.2184 5.50623H9.78186C9.60924 5.50623 9.46936 5.36629 9.46936 5.19373C9.46936 5.02116 9.60924 4.88123 9.78186 4.88123H22.2184C22.391 4.88123 22.5309 5.02116 22.5309 5.19373C22.5309 5.36629 22.391 5.50623 22.2184 5.50623Z" fill="#FFAB66"/>
<path d="M22.2184 6.80481H9.78186C9.60924 6.80481 9.46936 6.66487 9.46936 6.49231C9.46936 6.31975 9.60924 6.17981 9.78186 6.17981H22.2184C22.391 6.17981 22.5309 6.31975 22.5309 6.49231C22.5309 6.66487 22.391 6.80481 22.2184 6.80481Z" fill="#FFAB66"/>
<path d="M22.2184 8.10352H9.78186C9.60924 8.10352 9.46936 7.96358 9.46936 7.79102C9.46936 7.61845 9.60924 7.47852 9.78186 7.47852H22.2184C22.391 7.47852 22.5309 7.61845 22.5309 7.79102C22.5309 7.96358 22.391 8.10352 22.2184 8.10352Z" fill="#FFAB66"/>
<path d="M22.2184 9.40222H9.78186C9.60924 9.40222 9.46936 9.26228 9.46936 9.08972C9.46936 8.91716 9.60924 8.77722 9.78186 8.77722H22.2184C22.391 8.77722 22.5309 8.91716 22.5309 9.08972C22.5309 9.26228 22.391 9.40222 22.2184 9.40222Z" fill="#FFAB66"/>
<path d="M15.1602 18.3349C15.1602 16.7589 13.8826 15.4813 12.3066 15.4813C10.7306 15.4813 9.453 16.7589 9.453 18.3349C9.453 19.2274 9.86288 20.0239 10.5044 20.5471V24.039C10.5044 24.294 10.7938 24.4415 11.0007 24.2921L12.3063 23.3459L13.6126 24.2921C13.8194 24.4415 14.1088 24.294 14.1088 24.039V20.5471C14.7503 20.0238 15.1602 19.2273 15.1602 18.3349Z" fill="#FFE8DC"/>
<path d="M22.2183 11.8894H19.6676C19.495 11.8894 19.3551 11.7495 19.3551 11.5769C19.3551 11.4043 19.495 11.2644 19.6676 11.2644H22.2183C22.3909 11.2644 22.5308 11.4043 22.5308 11.5769C22.5308 11.7495 22.3909 11.8894 22.2183 11.8894Z" fill="#FF4D4D"/>
<path d="M22.2183 13.027H19.6676C19.495 13.027 19.3551 12.887 19.3551 12.7145C19.3551 12.5419 19.495 12.402 19.6676 12.402H22.2183C22.3909 12.402 22.5308 12.5419 22.5308 12.7145C22.5308 12.887 22.3909 13.027 22.2183 13.027Z" fill="#FF4D4D"/>
<path d="M22.2184 14.8235H16.7976C16.625 14.8235 16.4851 14.6835 16.4851 14.511C16.4851 14.3384 16.625 14.1985 16.7976 14.1985H22.2184C22.391 14.1985 22.5309 14.3384 22.5309 14.511C22.5309 14.6835 22.391 14.8235 22.2184 14.8235Z" fill="#FFAB66"/>
<path d="M14.1089 19.0071V23.189C14.1089 23.444 13.8195 23.5915 13.6126 23.4421L12.3064 22.4958L11.0008 23.4421C10.7939 23.5915 10.5045 23.444 10.5045 23.189V19.0071H14.1089Z" fill="#FF4D4D"/>
<path d="M14.1089 19.0071V20.5533C13.5839 20.8752 12.9664 21.0615 12.3064 21.0615C11.647 21.0615 11.0295 20.8758 10.5045 20.554V19.0071H14.1089Z" fill="#FF2C2C"/>
<path d="M12.3066 20.3385C13.8826 20.3385 15.1603 19.0609 15.1603 17.4849C15.1603 15.9088 13.8826 14.6312 12.3066 14.6312C10.7306 14.6312 9.453 15.9088 9.453 17.4849C9.453 19.0609 10.7306 20.3385 12.3066 20.3385Z" fill="#FF8B00"/>
<path d="M12.3066 19.7437C13.5541 19.7437 14.5654 18.7324 14.5654 17.4849C14.5654 16.2375 13.5541 15.2262 12.3066 15.2262C11.0591 15.2262 10.0479 16.2375 10.0479 17.4849C10.0479 18.7324 11.0591 19.7437 12.3066 19.7437Z" fill="#FF9D33"/>
<path d="M12.4539 15.9231L12.7663 16.8844H13.777C13.9271 16.8844 13.9895 17.0764 13.8681 17.1647L13.0504 17.7588L13.3627 18.72C13.4091 18.8628 13.2457 18.9815 13.1243 18.8933L12.3066 18.2992L11.4889 18.8933C11.3674 18.9815 11.2041 18.8628 11.2504 18.72L11.5628 17.7588L10.7451 17.1647C10.6236 17.0764 10.6861 16.8844 10.8361 16.8844H11.8469L12.1592 15.9231C12.2056 15.7804 12.4076 15.7804 12.4539 15.9231Z" fill="#FFF3EE"/>
<path d="M20.1005 23.1894V22.3134C20.1005 22.1407 20.2404 22.0009 20.413 22.0009C20.5855 22.0009 20.7255 22.1407 20.7255 22.3134V23.1894C20.7255 23.362 20.5855 23.5019 20.413 23.5019C20.2404 23.5019 20.1005 23.362 20.1005 23.1894Z" fill="#8383FF"/>
<path d="M18.8 23.1894V22.3134C18.8 22.1407 18.94 22.0009 19.1125 22.0009C19.2851 22.0009 19.425 22.1407 19.425 22.3134V23.1894C19.425 23.362 19.2851 23.5019 19.1125 23.5019C18.94 23.5019 18.8 23.362 18.8 23.1894Z" fill="#8383FF"/>
<path d="M21.4009 23.1894V22.3134C21.4009 22.1407 21.5408 22.0009 21.7134 22.0009C21.8859 22.0009 22.0259 22.1407 22.0259 22.3134V23.1894C22.0259 23.362 21.8859 23.5019 21.7134 23.5019C21.5408 23.5019 21.4009 23.362 21.4009 23.1894Z" fill="#8383FF"/>
</g>
<defs>
<linearGradient id="paint0_linear" x1="24.0633" y1="-5.49627" x2="11.0163" y2="38.5372" gradientUnits="userSpaceOnUse">
<stop offset="0.0569" stop-color="white" stop-opacity="0"/>
<stop offset="0.2544" stop-color="#EEEEFF" stop-opacity="0.302"/>
<stop offset="0.5092" stop-color="#DEDEFF" stop-opacity="0.691"/>
<stop offset="0.712" stop-color="#D9D9FF"/>
</linearGradient>
<clipPath id="clip0">
<rect width="32" height="32" fill="white"/>
</clipPath>
</defs>
</svg>
