<svg width="32" height="32" viewBox="0 0 32 32" fill="none" xmlns="http://www.w3.org/2000/svg">
<g clip-path="url(#clip0)">
<path d="M13.581 1.24972C16.3199 -3.60784 17.4848 7.16229 23.3719 8.58397C31.3673 10.5147 34.3805 12.8719 28.0642 16.2278C18.6625 21.2229 33.526 27.6702 29.0813 31.5804C26.2539 34.0677 21.4588 24.6855 15.7273 24.6115C4.43241 26.2572 -6.46228 28.8651 6.24447 15.3602C8.31835 12.692 4.81778 11.0216 4.55022 7.9176C4.82691 4.79616 10.8828 9.34679 13.581 1.24972Z" fill="url(#paint0_linear)"/>
<path opacity="0.1" d="M29.4743 13.9204C29.6469 13.9204 29.7868 13.7805 29.7868 13.6079C29.7868 13.4352 29.6469 13.2954 29.4743 13.2954H29.0469V13.2953V12.4235H29.4743C29.6469 12.4235 29.7868 12.2836 29.7868 12.111C29.7868 11.9384 29.6469 11.7985 29.4743 11.7985H28.8766C28.8424 11.7623 28.804 11.7297 28.7613 11.702L16.3393 3.67056C16.1328 3.53706 15.8671 3.53706 15.6606 3.67056L3.23864 11.702C3.19589 11.7296 3.15745 11.7622 3.12332 11.7985H2.52557C2.35301 11.7985 2.21307 11.9384 2.21307 12.111C2.21307 12.2836 2.35301 12.4235 2.52557 12.4235H2.95301V13.2953V13.2954H2.52557C2.35301 13.2954 2.21307 13.4352 2.21307 13.6079C2.21307 13.7805 2.35301 13.9204 2.52557 13.9204H5.54751L5.8692 14.7552C5.8627 14.7551 5.85632 14.7542 5.84982 14.7542C5.37257 14.7542 4.9857 15.1411 4.9857 15.6184C4.9857 16.0956 5.37257 16.4825 5.84982 16.4825C5.86814 16.4825 5.88601 16.4809 5.90407 16.4797V27.7968H4.11007C3.76489 27.7968 3.48507 28.0766 3.48507 28.4218V28.9747H2.52907C2.35651 28.9747 2.21657 29.1146 2.21657 29.2872V30.3232C2.21657 30.4958 2.35651 30.6357 2.52907 30.6357H29.4708C29.6433 30.6357 29.7833 30.4958 29.7833 30.3232V29.2872C29.7833 29.1146 29.6433 28.9747 29.4708 28.9747H28.5148V28.4218C28.5148 28.0766 28.235 27.7968 27.8898 27.7968H26.0958V16.4797C26.1138 16.4809 26.1318 16.4825 26.1501 16.4825C26.6273 16.4825 27.0142 16.0956 27.0142 15.6184C27.0142 15.1411 26.6273 14.7542 26.1501 14.7542C26.1435 14.7542 26.1372 14.7551 26.1307 14.7552L26.4524 13.9204H29.4743ZM8.94457 16.4797C8.96257 16.4809 8.98051 16.4825 8.99882 16.4825C9.47607 16.4825 9.86295 16.0956 9.86295 15.6184C9.86295 15.1411 9.47607 14.7542 8.99882 14.7542C8.99226 14.7542 8.98595 14.7551 8.97945 14.7552L9.30114 13.9204H14.1232L14.4449 14.7552C14.4384 14.7551 14.432 14.7542 14.4255 14.7542C13.9483 14.7542 13.5614 15.1411 13.5614 15.6184C13.5614 16.0956 13.9483 16.4825 14.4255 16.4825C14.4438 16.4825 14.4617 16.4809 14.4798 16.4797V27.7968H8.94457V16.4797ZM23.0205 14.7552C23.014 14.7551 23.0077 14.7542 23.0011 14.7542C22.5239 14.7542 22.137 15.1411 22.137 15.6183C22.137 16.0956 22.5239 16.4824 23.0011 16.4824C23.0194 16.4824 23.0373 16.4808 23.0554 16.4797V27.7967H17.5202V16.4797C17.5382 16.4809 17.5561 16.4825 17.5744 16.4825C18.0517 16.4825 18.4386 16.0956 18.4386 15.6184C18.4386 15.1411 18.0517 14.7542 17.5744 14.7542C17.5679 14.7542 17.5616 14.7551 17.5551 14.7552L17.8768 13.9204H22.6988L23.0205 14.7552Z" fill="#0000CC"/>
<path d="M8.94456 13.2512H5.90399L5.53537 12.2945C5.46824 12.1203 5.59681 11.9329 5.78362 11.9329H9.065C9.25175 11.9329 9.38037 12.1202 9.31325 12.2945L8.94456 13.2512Z" fill="#FFC599"/>
<path d="M5.90405 13.2511H8.94455V26.1725H5.90405V13.2511Z" fill="#FFAB66"/>
<path d="M5.90405 13.2511H8.94455V13.9563H5.90405V13.2511Z" fill="#FFE8DC"/>
<path d="M5.84984 14.888C6.32709 14.888 6.71397 14.5012 6.71397 14.0239C6.71397 13.5467 6.32709 13.1598 5.84984 13.1598C5.3726 13.1598 4.98572 13.5467 4.98572 14.0239C4.98572 14.5012 5.3726 14.888 5.84984 14.888Z" fill="#FFE8DC"/>
<path d="M5.84979 14.334C6.021 14.334 6.15979 14.1952 6.15979 14.024C6.15979 13.8528 6.021 13.714 5.84979 13.714C5.67859 13.714 5.53979 13.8528 5.53979 14.024C5.53979 14.1952 5.67859 14.334 5.84979 14.334Z" fill="#FFC599"/>
<path d="M8.99877 14.888C9.47601 14.888 9.86289 14.5012 9.86289 14.0239C9.86289 13.5467 9.47601 13.1598 8.99877 13.1598C8.52153 13.1598 8.13464 13.5467 8.13464 14.0239C8.13464 14.5012 8.52153 14.888 8.99877 14.888Z" fill="#FFE8DC"/>
<path d="M8.99878 14.334C9.16999 14.334 9.30878 14.1952 9.30878 14.024C9.30878 13.8528 9.16999 13.714 8.99878 13.714C8.82757 13.714 8.68878 13.8528 8.68878 14.024C8.68878 14.1952 8.82757 14.334 8.99878 14.334Z" fill="#FFC599"/>
<path d="M7.77748 26.1723H7.07104V16.0005C7.07104 15.8055 7.22917 15.6473 7.42423 15.6473C7.6193 15.6473 7.77742 15.8055 7.77742 16.0005V26.1723H7.77748Z" fill="#FF8B00"/>
<path d="M17.5202 13.2512H14.4796L14.111 12.2945C14.0439 12.1203 14.1724 11.9329 14.3592 11.9329H17.6406C17.8274 11.9329 17.956 12.1202 17.8889 12.2945L17.5202 13.2512Z" fill="#FFC599"/>
<path d="M14.4797 13.2511H17.5202V26.1725H14.4797V13.2511Z" fill="#FFAB66"/>
<path d="M14.4797 13.2511H17.5202V13.9563H14.4797V13.2511Z" fill="#FFE8DC"/>
<path d="M14.4255 14.888C14.9027 14.888 15.2896 14.5012 15.2896 14.0239C15.2896 13.5467 14.9027 13.1598 14.4255 13.1598C13.9482 13.1598 13.5613 13.5467 13.5613 14.0239C13.5613 14.5012 13.9482 14.888 14.4255 14.888Z" fill="#FFE8DC"/>
<path d="M14.4255 14.334C14.5967 14.334 14.7355 14.1952 14.7355 14.024C14.7355 13.8528 14.5967 13.714 14.4255 13.714C14.2543 13.714 14.1155 13.8528 14.1155 14.024C14.1155 14.1952 14.2543 14.334 14.4255 14.334Z" fill="#FFC599"/>
<path d="M17.5745 14.888C18.0517 14.888 18.4386 14.5012 18.4386 14.0239C18.4386 13.5467 18.0517 13.1598 17.5745 13.1598C17.0972 13.1598 16.7103 13.5467 16.7103 14.0239C16.7103 14.5012 17.0972 14.888 17.5745 14.888Z" fill="#FFE8DC"/>
<path d="M17.5745 14.334C17.7457 14.334 17.8845 14.1952 17.8845 14.024C17.8845 13.8528 17.7457 13.714 17.5745 13.714C17.4033 13.714 17.2645 13.8528 17.2645 14.024C17.2645 14.1952 17.4033 14.334 17.5745 14.334Z" fill="#FFC599"/>
<path d="M16.3532 26.1723H15.6467V16.0005C15.6467 15.8055 15.8049 15.6473 15.9999 15.6473C16.195 15.6473 16.3531 15.8055 16.3531 16.0005V26.1723H16.3532Z" fill="#FF8B00"/>
<path d="M26.096 13.2512H23.0554L22.6868 12.2945C22.6197 12.1203 22.7482 11.9329 22.935 11.9329H26.2164C26.4032 11.9329 26.5318 12.1202 26.4647 12.2945L26.096 13.2512Z" fill="#FFC599"/>
<path d="M23.0554 13.2511H26.0959V26.1725H23.0554V13.2511Z" fill="#FFAB66"/>
<path d="M23.0554 13.2511H26.0959V13.9563H23.0554V13.2511Z" fill="#FFE8DC"/>
<path d="M23.0012 14.888C23.4785 14.888 23.8653 14.5012 23.8653 14.0239C23.8653 13.5467 23.4785 13.1598 23.0012 13.1598C22.524 13.1598 22.1371 13.5467 22.1371 14.0239C22.1371 14.5012 22.524 14.888 23.0012 14.888Z" fill="#FFE8DC"/>
<path d="M23.0012 14.334C23.1724 14.334 23.3112 14.1952 23.3112 14.024C23.3112 13.8528 23.1724 13.714 23.0012 13.714C22.83 13.714 22.6912 13.8528 22.6912 14.024C22.6912 14.1952 22.83 14.334 23.0012 14.334Z" fill="#FFC599"/>
<path d="M26.1501 14.888C26.6274 14.888 27.0143 14.5012 27.0143 14.0239C27.0143 13.5467 26.6274 13.1598 26.1501 13.1598C25.6729 13.1598 25.286 13.5467 25.286 14.0239C25.286 14.5012 25.6729 14.888 26.1501 14.888Z" fill="#FFE8DC"/>
<path d="M26.1501 14.334C26.3213 14.334 26.4601 14.1952 26.4601 14.024C26.4601 13.8528 26.3213 13.714 26.1501 13.714C25.9789 13.714 25.8401 13.8528 25.8401 14.024C25.8401 14.1952 25.9789 14.334 26.1501 14.334Z" fill="#FFC599"/>
<path d="M24.9289 26.1723H24.2225V16.0005C24.2225 15.8055 24.3806 15.6473 24.5757 15.6473C24.7707 15.6473 24.9289 15.8055 24.9289 16.0005V26.1723H24.9289Z" fill="#FF8B00"/>
<path d="M28.5149 27.5445H3.48511V26.5084C3.48511 26.1632 3.76492 25.8834 4.11011 25.8834H27.8899C28.235 25.8834 28.5149 26.1632 28.5149 26.5084V27.5445Z" fill="#FF4D4D"/>
<path d="M29.4708 29.0412H2.52917C2.35661 29.0412 2.21667 28.9013 2.21667 28.7287V27.6926C2.21667 27.5201 2.35661 27.3801 2.52917 27.3801H29.4709C29.6434 27.3801 29.7834 27.5201 29.7834 27.6926V28.7287C29.7833 28.9013 29.6434 29.0412 29.4708 29.0412Z" fill="#FFC599"/>
<path d="M28.7344 12.0132H3.2655C3.09294 12.0132 2.953 11.8733 2.953 11.7007V10.6323C2.953 10.4202 3.06057 10.2226 3.23863 10.1074L15.6606 2.07596C15.8671 1.94246 16.1328 1.94246 16.3393 2.07596L28.7612 10.1074C28.9393 10.2225 29.0468 10.4201 29.0468 10.6323V11.7007C29.0469 11.8733 28.907 12.0132 28.7344 12.0132Z" fill="#FFAB66"/>
<path d="M29.0469 10.6321V11.7009C29.0469 11.8734 28.9069 12.0134 28.7344 12.0134H3.26562C3.09306 12.0134 2.95312 11.8734 2.95312 11.7009V10.6321C2.95312 10.5927 2.95688 10.554 2.96438 10.5165H29.0356C29.0431 10.554 29.0469 10.5927 29.0469 10.6321Z" fill="#FF4D4D"/>
<path d="M8.11223 8.44628L12.7203 5.46673C12.9282 5.33229 13.2025 5.48154 13.2025 5.72916V8.70872C13.2025 8.88128 13.0625 9.02122 12.89 9.02122H8.28192C7.97048 9.02116 7.85073 8.61535 8.11223 8.44628Z" fill="#FF9D33"/>
<path d="M23.7181 9.02025H19.11C18.9374 9.02025 18.7975 8.88031 18.7975 8.70775V5.72819C18.7975 5.48056 19.0717 5.33131 19.2797 5.46575L23.8877 8.44531C24.1492 8.61444 24.0295 9.02025 23.7181 9.02025Z" fill="#FF9D33"/>
<path d="M16 8.68576C17.1617 8.68576 18.1035 7.74402 18.1035 6.58232C18.1035 5.42062 17.1617 4.47888 16 4.47888C14.8383 4.47888 13.8966 5.42062 13.8966 6.58232C13.8966 7.74402 14.8383 8.68576 16 8.68576Z" fill="#FFE8DC"/>
<path d="M15.5032 7.52068C15.3686 7.52068 15.2442 7.433 15.2038 7.29737L14.9695 6.51062H14.7355C14.5629 6.51062 14.423 6.37075 14.423 6.19812C14.423 6.0255 14.5629 5.88562 14.7355 5.88562H15.2024C15.3406 5.88562 15.4625 5.97643 15.5019 6.10887L15.8028 7.11887C15.852 7.28425 15.7579 7.45837 15.5925 7.50762C15.5628 7.51643 15.5328 7.52068 15.5032 7.52068Z" fill="#FF4D4D"/>
<path d="M16.4967 7.52068C16.4671 7.52068 16.4371 7.5165 16.4073 7.50762C16.2419 7.45831 16.1478 7.28431 16.197 7.11887L16.498 6.10887C16.5375 5.97643 16.6592 5.88562 16.7975 5.88562H17.2644C17.4371 5.88562 17.5769 6.0255 17.5769 6.19812C17.5769 6.37075 17.4371 6.51062 17.2644 6.51062H17.0305L16.796 7.29737C16.7557 7.43293 16.6314 7.52068 16.4967 7.52068Z" fill="#FF4D4D"/>
<path d="M13.2025 5.72856V6.41293C13.2025 6.16543 12.9281 6.01606 12.7206 6.15043L8.28188 9.02043C7.97063 9.02043 7.85063 8.61481 8.1125 8.44543L12.7206 5.46606C12.9281 5.33168 13.2025 5.48106 13.2025 5.72856Z" fill="#FF8B00"/>
<path d="M23.7181 9.02043L19.2794 6.15043C19.0719 6.01606 18.7975 6.16543 18.7975 6.41293V5.72856C18.7975 5.48106 19.0719 5.33168 19.2794 5.46606L23.8875 8.44543C24.1494 8.61481 24.0294 9.02043 23.7181 9.02043Z" fill="#FF8B00"/>
<path d="M29.4708 27.0677H28.8274V26.5085C28.8274 25.9916 28.4068 25.571 27.8899 25.571H26.4084V15.1712C26.9332 15.0531 27.3267 14.5839 27.3267 14.0239C27.3267 13.5186 27.0059 13.0879 26.5577 12.9216L26.7561 12.4069C26.7664 12.3802 26.7714 12.3531 26.7742 12.3259H29.4744C29.647 12.3259 29.7869 12.1861 29.7869 12.0134C29.7869 11.8408 29.647 11.7009 29.4744 11.7009H29.3594V11.7009V10.8291H29.4744C29.647 10.8291 29.7869 10.6892 29.7869 10.5166C29.7869 10.344 29.647 10.2041 29.4744 10.2041H29.2559C29.1822 10.0605 29.0716 9.93612 28.9309 9.84518L25.8823 7.87405C25.7374 7.78049 25.5439 7.82199 25.4502 7.9668C25.3565 8.11174 25.398 8.30518 25.5429 8.39893L28.3349 10.2041H3.66505L15.8303 2.33855C15.9334 2.27193 16.0666 2.27193 16.1697 2.33855L23.7702 7.25274C23.9154 7.34643 24.1086 7.30486 24.2023 7.15999C24.296 7.01505 24.2545 6.82162 24.1096 6.72787L16.5091 1.81368C16.1998 1.61387 15.8002 1.61387 15.491 1.81368L3.06905 9.84511C2.92836 9.93605 2.81774 10.0604 2.74399 10.2041H2.52561C2.35305 10.2041 2.21311 10.3439 2.21311 10.5166C2.21311 10.6892 2.35305 10.8291 2.52561 10.8291H2.64049V11.7008V11.7009H2.52561C2.35305 11.7009 2.21311 11.8407 2.21311 12.0134C2.21311 12.186 2.35305 12.3259 2.52561 12.3259H5.22574C5.22849 12.353 5.23355 12.3801 5.2438 12.4068L5.44218 12.9216C4.99399 13.0879 4.67318 13.5186 4.67318 14.0239C4.67318 14.5839 5.06674 15.0529 5.59155 15.1711V25.5709H4.11011C3.59318 25.5709 3.17261 25.9914 3.17261 26.5084V27.0676H2.52911C2.18449 27.0676 1.90411 27.348 1.90411 27.6926V28.7287C1.90411 29.0733 2.18449 29.3537 2.52911 29.3537H29.4708C29.8154 29.3537 30.0958 29.0733 30.0958 28.7287V27.6926C30.0958 27.3481 29.8154 27.0677 29.4708 27.0677ZM28.7344 10.8291V11.7009H3.26555V10.8291H28.7344ZM26.1501 14.5756C25.8459 14.5756 25.5985 14.3281 25.5985 14.0239C25.5985 13.7969 25.7364 13.6016 25.9327 13.5171C25.9487 13.5269 25.9654 13.5358 25.9836 13.5428C26.0205 13.5571 26.0585 13.5637 26.0959 13.5637C26.1686 13.5637 26.2384 13.5376 26.2939 13.492C26.5285 13.5555 26.7018 13.7696 26.7018 14.024C26.7018 14.3281 26.4544 14.5756 26.1501 14.5756ZM25.9067 12.8729C25.3744 12.9854 24.9735 13.4586 24.9735 14.0239C24.9735 14.5446 25.3137 14.9867 25.7834 15.1413V25.571H23.3679V15.1413C23.8375 14.9867 24.1778 14.5446 24.1778 14.0239C24.1778 13.4586 23.7769 12.9854 23.2446 12.8729L23.0337 12.3259H26.1175L25.9067 12.8729ZM14.2817 13.4919C14.3373 13.5375 14.4071 13.5637 14.4798 13.5637C14.5172 13.5637 14.5552 13.557 14.5921 13.5427C14.6102 13.5357 14.6269 13.5268 14.6429 13.5171C14.8393 13.6016 14.9772 13.7969 14.9772 14.0239C14.9772 14.3281 14.7297 14.5756 14.4255 14.5756C14.1213 14.5756 13.8739 14.3281 13.8739 14.0239C13.8739 13.7695 14.0472 13.5554 14.2817 13.4919ZM14.7922 15.1413C15.2619 14.9867 15.6022 14.5446 15.6022 14.0239C15.6022 13.4586 15.2012 12.9854 14.6689 12.8729L14.4581 12.3259H17.5419L17.3311 12.8729C16.7987 12.9854 16.3978 13.4586 16.3978 14.0239C16.3978 14.5446 16.7381 14.9867 17.2077 15.1413V25.571H14.7922V15.1413ZM17.5744 14.5756C17.2702 14.5756 17.0228 14.3281 17.0228 14.0239C17.0228 13.7969 17.1607 13.6016 17.3571 13.5171C17.3731 13.5269 17.3897 13.5359 17.4079 13.5428C17.4448 13.5571 17.4828 13.5637 17.5202 13.5637C17.5929 13.5637 17.6627 13.5376 17.7182 13.492C17.9528 13.5555 18.1261 13.7696 18.1261 14.0239C18.1261 14.3281 17.8787 14.5756 17.5744 14.5756ZM17.8327 15.1711C18.3576 15.0529 18.7511 14.5839 18.7511 14.0239C18.7511 13.5186 18.4302 13.088 17.9821 12.9216L18.1805 12.4069C18.1907 12.3802 18.1958 12.3531 18.1986 12.3259H22.377C22.3797 12.3531 22.3847 12.3802 22.3951 12.4069L22.5934 12.9216C22.1453 13.088 21.8245 13.5186 21.8245 14.0239C21.8245 14.5839 22.218 15.053 22.7428 15.1711V25.5709H17.8327V15.1711H17.8327ZM23.5528 14.0239C23.5528 14.3281 23.3054 14.5756 23.0012 14.5756C22.697 14.5756 22.4496 14.3281 22.4496 14.0239C22.4496 13.7696 22.6228 13.5554 22.8574 13.492C22.9129 13.5376 22.9827 13.5637 23.0554 13.5637C23.0928 13.5637 23.1308 13.5571 23.1677 13.5428C23.1859 13.5358 23.2026 13.5269 23.2186 13.5171C23.4149 13.6016 23.5528 13.7969 23.5528 14.0239ZM5.29818 14.0239C5.29818 13.7696 5.47149 13.5554 5.70605 13.492C5.76161 13.5376 5.83143 13.5637 5.90411 13.5637C5.94149 13.5637 5.97949 13.5571 6.01643 13.5428C6.03455 13.5358 6.05124 13.5269 6.06724 13.5171C6.26361 13.6017 6.40149 13.7969 6.40149 14.0239C6.40149 14.3281 6.15405 14.5756 5.84986 14.5756C5.54568 14.5756 5.29818 14.3281 5.29818 14.0239ZM6.21655 15.1413C6.68618 14.9867 7.02649 14.5446 7.02649 14.0239C7.02649 13.4586 6.62555 12.9854 6.09318 12.8729L5.88243 12.3259H8.96624L8.75543 12.8729C8.22305 12.9854 7.82218 13.4586 7.82218 14.0239C7.82218 14.5446 8.16249 14.9867 8.63205 15.1413V23.8817C8.63205 24.0543 8.77199 24.1942 8.94455 24.1942C9.11712 24.1942 9.25705 24.0543 9.25705 23.8817V15.1711C9.78187 15.0529 10.1754 14.5839 10.1754 14.0239C10.1754 13.5186 9.85461 13.0879 9.40643 12.9216L9.6048 12.4068C9.61505 12.3801 9.62011 12.353 9.62286 12.3259H13.8014C13.8041 12.353 13.8092 12.3801 13.8194 12.4068L14.0178 12.9216C13.5696 13.0879 13.2488 13.5186 13.2488 14.0239C13.2488 14.5839 13.6424 15.0529 14.1672 15.1711V25.5709H6.21655V15.1413ZM8.9988 14.5756C8.69461 14.5756 8.44718 14.3281 8.44718 14.0239C8.44718 13.7969 8.58505 13.6016 8.78143 13.5171C8.79743 13.5269 8.81411 13.5359 8.83224 13.5428C8.86918 13.5571 8.90718 13.5637 8.94455 13.5637C9.01724 13.5637 9.08705 13.5376 9.14261 13.492C9.37718 13.5555 9.55049 13.7696 9.55049 14.024C9.55049 14.3281 9.30299 14.5756 8.9988 14.5756ZM3.79761 26.5085C3.79761 26.3362 3.9378 26.196 4.11011 26.196H27.8899C28.0622 26.196 28.2024 26.3362 28.2024 26.5085V27.0677H3.79761V26.5085ZM2.52911 28.7288V27.6927H29.4708L29.4712 28.7288H2.52911Z" fill="#0000CC"/>
<path d="M26.628 6.79251C26.5636 6.79251 26.4991 6.77264 26.4444 6.73283C26.3348 6.65333 26.289 6.51226 26.3309 6.38345L26.4082 6.14526L26.2056 5.99808C26.0961 5.91851 26.0503 5.77745 26.0922 5.6487C26.134 5.51989 26.254 5.43276 26.3894 5.43276H26.6397L26.7172 5.19451C26.759 5.06576 26.879 4.97864 27.0144 4.97864C27.1497 4.97864 27.2697 5.06583 27.3116 5.19458L27.3889 5.43276H27.6394C27.7747 5.43276 27.8947 5.51995 27.9366 5.6487C27.9784 5.77745 27.9326 5.91851 27.8231 5.99808L27.6205 6.14526L27.6978 6.38345C27.7397 6.51226 27.6939 6.65326 27.5843 6.73283C27.4748 6.81239 27.3264 6.81239 27.2169 6.73283L27.0144 6.58564L26.8119 6.73283C26.7569 6.77258 26.6924 6.79251 26.628 6.79251Z" fill="#FF4D4D"/>
<path d="M29.365 22.4504C29.2851 22.4504 29.205 22.4199 29.1441 22.3589L28.8338 22.0486L28.5235 22.3589C28.4015 22.4809 28.2035 22.4809 28.0816 22.3589C27.9595 22.2369 27.9595 22.039 28.0816 21.917L28.6128 21.3857C28.7348 21.2637 28.9328 21.2637 29.0547 21.3857L29.586 21.917C29.708 22.039 29.708 22.2369 29.586 22.3589C29.525 22.4199 29.445 22.4504 29.365 22.4504Z" fill="#FF9D33"/>
<path d="M8.50016 4.9138C8.42016 4.9138 8.34023 4.8833 8.27916 4.82224L7.96892 4.51199L7.65867 4.82224C7.5366 4.9443 7.33879 4.9443 7.21673 4.82224C7.09467 4.70024 7.09467 4.50237 7.21673 4.38037L7.74798 3.84912C7.87004 3.72705 8.06785 3.72705 8.18992 3.84912L8.72116 4.38037C8.84323 4.50237 8.84323 4.70024 8.72116 4.82224C8.6601 4.8833 8.58016 4.9138 8.50016 4.9138Z" fill="#FF9D33"/>
<path d="M3.87137 15.9936C3.80694 15.9936 3.74244 15.9737 3.68769 15.9339L3.48512 15.7868L3.28256 15.9339C3.17306 16.0135 3.02475 16.0135 2.91519 15.9339C2.80569 15.8544 2.75981 15.7134 2.80169 15.5846L2.87906 15.3464L2.6765 15.1992C2.567 15.1196 2.52113 14.9786 2.563 14.8498C2.60481 14.721 2.72481 14.6339 2.86019 14.6339H3.11063L3.188 14.3957C3.22981 14.2669 3.34981 14.1798 3.48519 14.1798C3.62056 14.1798 3.74056 14.267 3.78237 14.3957L3.85975 14.6339H4.11019C4.24556 14.6339 4.36556 14.7211 4.40737 14.8498C4.44919 14.9786 4.40337 15.1196 4.29387 15.1992L4.09131 15.3464L4.16869 15.5846C4.2105 15.7134 4.16469 15.8544 4.05519 15.9339C4.00025 15.9737 3.93581 15.9936 3.87137 15.9936Z" fill="#4D4DFF"/>
<path d="M28.8852 24.4062C28.8053 24.4062 28.7252 24.3757 28.6643 24.3147L28.354 24.0044L28.0437 24.3147C27.9217 24.4367 27.7237 24.4367 27.6018 24.3147C27.4797 24.1927 27.4797 23.9948 27.6018 23.8728L28.133 23.3415C28.255 23.2195 28.453 23.2195 28.5749 23.3415L29.1062 23.8728C29.2282 23.9948 29.2282 24.1927 29.1062 24.3147C29.0452 24.3757 28.9652 24.4062 28.8852 24.4062Z" fill="#FF4D4D"/>
</g>
<defs>
<linearGradient id="paint0_linear" x1="31.0922" y1="34.4912" x2="-2.0689" y2="-0.783966" gradientUnits="userSpaceOnUse">
<stop stop-color="#FFF3EE" stop-opacity="0"/>
<stop offset="0.2938" stop-color="#FFEADE" stop-opacity="0.373"/>
<stop offset="0.7874" stop-color="#FFD6BB"/>
</linearGradient>
<clipPath id="clip0">
<rect width="32" height="32" fill="white"/>
</clipPath>
</defs>
</svg>
