<svg width="32" height="32" viewBox="0 0 32 32" fill="none" xmlns="http://www.w3.org/2000/svg">
<g clip-path="url(#clip0)">
<path d="M1.00463 18.6317C2.17507 22.6319 5.54882 30.792 11.2498 30.0595C16.9676 29.3249 14.7347 21.9517 19.969 20.9412C22.2732 20.4963 23.8351 24.4842 26.1444 24.3602C29.1186 24.2004 30.6325 21.2562 31.4636 18.7812C33.2259 13.5332 30.5868 4.63417 24.4099 3.09292C19.0197 1.74799 18.3892 8.33386 13.7023 6.42093C11.068 5.34574 11.3312 2.13492 8.12282 1.48705C-1.58331 -0.472888 -0.552808 13.3089 1.00463 18.6317Z" fill="url(#paint0_linear)"/>
<path d="M22.3194 13.3045C22.255 13.3045 22.1905 13.2846 22.1358 13.2448L21.9332 13.0976L21.7306 13.2448C21.6211 13.3243 21.4728 13.3243 21.3632 13.2448C21.2537 13.1652 21.2079 13.0242 21.2498 12.8954L21.3271 12.6573L21.1246 12.5102C21.015 12.4306 20.9692 12.2895 21.0111 12.1608C21.0529 12.032 21.1729 11.9448 21.3083 11.9448H21.5587L21.6361 11.7067C21.6779 11.5779 21.7979 11.4907 21.9333 11.4907C22.0686 11.4907 22.1886 11.5779 22.2304 11.7067L22.3078 11.9448H22.5583C22.6936 11.9448 22.8136 12.032 22.8554 12.1608C22.8973 12.2895 22.8515 12.4306 22.7419 12.5102L22.5394 12.6573L22.6168 12.8954C22.6586 13.0242 22.6128 13.1652 22.5033 13.2448C22.4484 13.2845 22.3839 13.3045 22.3194 13.3045Z" fill="#FF4D4D"/>
<path d="M9.29844 5.77646C9.234 5.77646 9.1695 5.75658 9.11475 5.71677L8.91219 5.56958L8.70956 5.71677C8.6 5.79633 8.45175 5.79633 8.34219 5.71677C8.23269 5.63721 8.18681 5.49615 8.22869 5.3674L8.30606 5.12927L8.1035 4.98208C7.994 4.90252 7.94813 4.76146 7.99 4.63271C8.03188 4.50396 8.15181 4.41677 8.28719 4.41677H8.53756L8.61494 4.17858C8.65675 4.04983 8.77675 3.96265 8.91213 3.96265C9.04756 3.96265 9.1675 4.04983 9.20931 4.17858L9.28669 4.41677H9.53712C9.6725 4.41677 9.7925 4.50396 9.83431 4.63271C9.87612 4.76146 9.83031 4.90252 9.72081 4.98208L9.51819 5.12921L9.59556 5.36733C9.63737 5.49608 9.59156 5.63715 9.48206 5.71671C9.42737 5.75652 9.36294 5.77646 9.29844 5.77646Z" fill="#4D4DFF"/>
<path d="M23.3563 10.3231C23.2764 10.3231 23.1963 10.2926 23.1354 10.2316L22.8251 9.92131L22.5147 10.2316C22.3928 10.3536 22.1948 10.3536 22.0729 10.2316C21.9508 10.1095 21.9508 9.91162 22.0729 9.78962L22.6041 9.25837C22.7261 9.13637 22.9241 9.13637 23.046 9.25837L23.5772 9.78962C23.6993 9.91168 23.6993 10.1096 23.5772 10.2316C23.5163 10.2926 23.4362 10.3231 23.3563 10.3231Z" fill="#FF9D33"/>
<path d="M14.1577 21.5278C14.0777 21.5278 13.9978 21.4973 13.9367 21.4363L13.6264 21.126L13.3162 21.4363C13.1941 21.5583 12.9963 21.5583 12.8743 21.4363C12.7522 21.3142 12.7522 21.1163 12.8743 20.9943L13.4055 20.4631C13.5276 20.3411 13.7254 20.3411 13.8474 20.4631L14.3787 20.9943C14.5008 21.1164 14.5008 21.3143 14.3787 21.4363C14.3176 21.4973 14.2377 21.5278 14.1577 21.5278Z" fill="#FF9D33"/>
<path d="M23.0893 27.6302C23.0094 27.6302 22.9293 27.5997 22.8684 27.5387L22.5581 27.2284L22.2478 27.5387C22.1258 27.6607 21.9278 27.6607 21.8059 27.5387C21.6838 27.4166 21.6838 27.2188 21.8059 27.0968L22.3372 26.5655C22.4591 26.4435 22.6571 26.4435 22.779 26.5655L23.3103 27.0968C23.4323 27.2188 23.4323 27.4167 23.3103 27.5387C23.2493 27.5997 23.1693 27.6302 23.0893 27.6302Z" fill="#4D4DFF"/>
<path opacity="0.1" d="M29.4172 28.9083L21.2028 20.6939L21.4308 20.4659C21.7746 20.1221 21.7746 19.5647 21.4308 19.221C21.087 18.8772 20.5296 18.8772 20.1859 19.221L20.093 19.3139L18.6099 17.0084L18.7426 16.8757C19.0864 16.5319 19.0864 15.9745 18.7426 15.6307C18.3988 15.2869 17.8414 15.2869 17.4976 15.6307L17.3778 15.7505L15.7271 14.6886L18.4699 11.9457C18.714 11.7017 18.714 11.3059 18.4699 11.0619L17.9596 10.5516L18.9946 9.51662L19.5049 10.0269C19.7489 10.271 20.1447 10.271 20.3888 10.0269L21.1252 9.29049C21.3693 9.04643 21.3693 8.65068 21.1252 8.40662L16.1538 3.43524C15.9098 3.19118 15.514 3.19118 15.2699 3.43524L14.5335 4.17168C14.2894 4.41574 14.2894 4.81149 14.5335 5.05556L15.0438 5.56587L14.0089 6.60081L13.4986 6.09049C13.2545 5.84643 12.8588 5.84643 12.6147 6.09049L5.11332 13.5918C4.86926 13.8359 4.86926 14.2316 5.11332 14.4757L5.62363 14.986L4.5887 16.0209L4.07838 15.5106C3.83432 15.2666 3.43857 15.2666 3.19451 15.5106L2.45807 16.2471C2.21401 16.4911 2.21401 16.8869 2.45807 17.1309L7.42945 22.1023C7.67351 22.3464 8.06926 22.3464 8.31332 22.1023L9.04976 21.3659C9.29382 21.1218 9.29382 20.7261 9.04976 20.482L8.53945 19.9717L9.57438 18.9367L10.0847 19.4471C10.3288 19.6911 10.7245 19.6911 10.9686 19.4471L13.7114 16.7042L14.7733 18.3549L14.6535 18.4747C14.3097 18.8186 14.3097 19.3759 14.6535 19.7197C14.9973 20.0636 15.5547 20.0636 15.8984 19.7197L16.0312 19.587L18.3366 21.0701L18.2438 21.163C17.9 21.5068 17.9 22.0642 18.2438 22.408C18.5876 22.7518 19.1449 22.7518 19.4888 22.408L19.7168 22.18L27.9311 30.3944C28.3415 30.8047 29.0069 30.8047 29.4173 30.3944C29.8276 29.9841 29.8276 29.3187 29.4172 28.9083Z" fill="#0000CC"/>
<path d="M4.28845 14.725L15.3396 3.67381L19.2898 7.624L8.23864 18.6752L4.28845 14.725Z" fill="#FF4D4D"/>
<path d="M20.3218 18.0752L18.4682 15.1938L15.811 17.851L18.6924 19.7047L20.3218 18.0752Z" fill="#FF4D4D"/>
<path d="M13.0148 14.027L14.8685 16.9084L17.5256 14.2512L14.6443 12.3976L13.0148 14.027Z" fill="#FF4D4D"/>
<path d="M29.4172 28.7999C29.0068 29.2102 28.3414 29.2102 27.9311 28.7999L19.2007 20.0695L20.6868 18.5834L29.4172 27.3137C29.8276 27.7241 29.8276 28.3895 29.4172 28.7999Z" fill="#FF8B00"/>
<path d="M19.1966 20.0693L20.6825 18.5834L22.0069 19.9078L20.521 21.3937L19.1966 20.0693Z" fill="#FFC599"/>
<path d="M29.4172 27.3136L23.7908 21.6871C23.2935 22.1806 22.7962 22.6741 22.3011 23.1698L27.9312 28.7998C28.3415 29.2101 29.0069 29.2101 29.4173 28.7998C29.8276 28.3893 29.8276 27.7239 29.4172 27.3136Z" fill="#FFC599"/>
<path d="M21.4308 18.8714L19.4887 20.8135C19.1449 21.1573 18.5875 21.1573 18.2437 20.8135C17.8999 20.4697 17.8999 19.9123 18.2437 19.5685L20.1858 17.6264C20.5296 17.2826 21.087 17.2826 21.4308 17.6264C21.7746 17.9702 21.7746 18.5276 21.4308 18.8714Z" fill="#FFAB66"/>
<path d="M18.7426 15.2812L15.8984 18.1253C15.5546 18.4691 14.9972 18.4691 14.6534 18.1253C14.3096 17.7815 14.3096 17.2241 14.6534 16.8803L17.4976 14.0362C17.8414 13.6924 18.3987 13.6924 18.7426 14.0362C19.0863 14.38 19.0863 14.9374 18.7426 15.2812Z" fill="#FF9D33"/>
<path d="M18.4698 10.3514L10.9686 17.8527C10.7245 18.0967 10.3288 18.0967 10.0847 17.8527L5.11334 12.8813C4.86928 12.6372 4.86928 12.2415 5.11334 11.9974L12.6146 4.49616C12.8587 4.25209 13.2544 4.25209 13.4985 4.49616L18.4698 9.46753C18.7139 9.71159 18.7139 10.1073 18.4698 10.3514Z" fill="#FFAB66"/>
<path d="M17.7304 11.0909L11.7081 17.1132L10.4065 15.8116C9.91837 15.3234 9.91837 14.5319 10.4065 14.0438L14.661 9.78931C15.1491 9.30119 15.9406 9.30119 16.4287 9.78931L17.7304 11.0909Z" fill="#FF8B00"/>
<path d="M21.1251 7.69607L20.3886 8.43251C20.1446 8.67657 19.7488 8.67657 19.5048 8.43251L14.5334 3.4612C14.2893 3.21713 14.2893 2.82138 14.5334 2.57732L15.2698 1.84088C15.5139 1.59682 15.9096 1.59682 16.1537 1.84088L21.1251 6.81226C21.3691 7.05632 21.3691 7.45201 21.1251 7.69607Z" fill="#FF9D33"/>
<path d="M16.9677 5.89546L19.5048 8.43258C19.7488 8.67664 20.1446 8.67664 20.3887 8.43258L21.1251 7.69614C21.3692 7.45208 21.3692 7.05633 21.1251 6.81227L18.588 4.27515L16.9677 5.89546Z" fill="#FFC599"/>
<path d="M17.8954 6.82319L19.5048 8.43256C19.7488 8.67662 20.1446 8.67662 20.3886 8.43256L21.1251 7.69613C21.3691 7.45206 21.3691 7.05631 21.1251 6.81225L19.5157 5.20288L17.8954 6.82319Z" fill="#FF8B00"/>
<path d="M9.04976 19.7713L8.31332 20.5078C8.06926 20.7518 7.67351 20.7518 7.42945 20.5078L2.45807 15.5364C2.21401 15.2923 2.21401 14.8966 2.45807 14.6525L3.19451 13.9161C3.43857 13.672 3.83432 13.672 4.07838 13.9161L9.04976 18.8874C9.29382 19.1315 9.29382 19.5273 9.04976 19.7713Z" fill="#FF9D33"/>
<path d="M4.8924 17.9707L7.42952 20.5078C7.67358 20.7519 8.06933 20.7519 8.31339 20.5078L9.04983 19.7713C9.29389 19.5273 9.29389 19.1315 9.04983 18.8875L6.51271 16.3503L4.8924 17.9707Z" fill="#FFC599"/>
<path d="M5.82007 18.8984L7.42944 20.5078C7.6735 20.7518 8.06925 20.7518 8.31331 20.5078L9.04975 19.7713C9.29381 19.5273 9.29381 19.1315 9.04975 18.8875L7.44038 17.2781L5.82007 18.8984Z" fill="#FF8B00"/>
<path d="M29.6381 27.0929L21.6447 19.0995L21.6517 19.0925C21.877 18.8672 22.0011 18.5676 22.0011 18.249C22.0011 17.9303 21.8771 17.6308 21.6518 17.4055C21.4265 17.1802 21.127 17.0561 20.8083 17.0561C20.5749 17.0561 20.3521 17.1233 20.1609 17.2475L19.0071 15.454C19.4267 14.9862 19.4131 14.2649 18.9635 13.8153C18.7382 13.59 18.4386 13.4659 18.12 13.4659C17.8295 13.4659 17.5554 13.5701 17.3384 13.7592L16.2221 13.041L18.6908 10.5723C19.0563 10.2067 19.0563 9.61196 18.6908 9.24646L18.4015 8.95715L18.9945 8.36415L19.2838 8.65352C19.4609 8.83059 19.6963 8.92809 19.9467 8.92809C20.1971 8.92809 20.4325 8.83059 20.6095 8.65352L21.346 7.91709C21.5231 7.74002 21.6206 7.50459 21.6206 7.25415C21.6206 7.00371 21.523 6.76834 21.346 6.59127L16.3746 1.6199C16.1975 1.44284 15.9621 1.34534 15.7117 1.34534C15.4613 1.34534 15.2258 1.44284 15.0488 1.6199L14.3123 2.35634C13.9468 2.7219 13.9468 3.31665 14.3123 3.68221L14.6016 3.97152L14.0087 4.56446L13.7194 4.27515C13.3538 3.90965 12.7591 3.90959 12.3936 4.27515L11.217 5.45165C11.0949 5.57371 11.0949 5.77159 11.217 5.89359C11.3391 6.01559 11.537 6.01565 11.6589 5.89359L12.8355 4.71709C12.9573 4.59527 13.1556 4.59521 13.2774 4.71709L18.2488 9.68846C18.3706 9.81028 18.3706 10.0086 18.2488 10.1304L10.7476 17.6316C10.6886 17.6906 10.6101 17.7232 10.5266 17.7232C10.4431 17.7232 10.3646 17.6906 10.3056 17.6316L5.33426 12.6603C5.21239 12.5385 5.21239 12.3401 5.33426 12.2183L10.1642 7.38846C10.2863 7.2664 10.2863 7.06852 10.1642 6.94652C10.0422 6.82459 9.84439 6.82452 9.72226 6.94652L4.89233 11.7764C4.52683 12.142 4.52683 12.7367 4.89233 13.1022L5.18164 13.3915L4.5887 13.9845L4.29939 13.6951C4.12233 13.5181 3.88689 13.4206 3.63651 13.4206C3.38608 13.4206 3.15064 13.5181 2.97358 13.6951L2.23714 14.4316C1.87164 14.7971 1.87164 15.3919 2.23714 15.7574L7.20851 20.7288C7.39133 20.9115 7.63133 21.0029 7.87145 21.0029C8.11145 21.0029 8.35164 20.9115 8.53433 20.7288L9.27076 19.9923C9.44783 19.8153 9.54533 19.5798 9.54533 19.3294C9.54533 19.079 9.44783 18.8436 9.27076 18.6665L8.98145 18.3772L9.57445 17.7842L9.86376 18.0735C10.0408 18.2506 10.2763 18.3482 10.5266 18.3482C10.777 18.3482 11.0125 18.2507 11.1896 18.0736L13.6583 15.6048L14.3765 16.7213C13.9694 17.1893 13.9873 17.9011 14.4325 18.3463C14.6651 18.5788 14.9705 18.6951 15.2759 18.6951C15.5611 18.6951 15.8454 18.5925 16.0711 18.3899L17.8647 19.5437C17.7405 19.735 17.6733 19.9578 17.6733 20.1911C17.6733 20.5097 17.7974 20.8093 18.0228 21.0346C18.248 21.2598 18.5476 21.384 18.8662 21.384C19.1848 21.384 19.4844 21.2599 19.7096 21.0346L19.7166 21.0275L20.1273 21.4382C20.1883 21.4992 20.2683 21.5297 20.3483 21.5297C20.4282 21.5297 20.5083 21.4992 20.5692 21.4382C20.6913 21.3161 20.6913 21.1183 20.5692 20.9963L20.1585 20.5856L21.2027 19.5414L29.1963 27.5348C29.3357 27.6743 29.4125 27.8597 29.4125 28.0569C29.4125 28.2541 29.3357 28.4395 29.1962 28.579C29.0568 28.7185 28.8714 28.7952 28.6741 28.7952C28.4769 28.7952 28.2915 28.7184 28.152 28.579L22.0641 22.491C21.9421 22.369 21.7441 22.369 21.6222 22.491C21.5001 22.6131 21.5001 22.811 21.6222 22.933L27.7101 29.0209C27.9676 29.2784 28.31 29.4202 28.6741 29.4202C29.0383 29.4202 29.3807 29.2784 29.6381 29.0209C29.8956 28.7634 30.0375 28.421 30.0375 28.0569C30.0375 27.6928 29.8956 27.3504 29.6381 27.0929ZM14.7544 2.79827L15.4908 2.06184C15.5518 2.0009 15.6318 1.97046 15.7118 1.97046C15.7918 1.97046 15.8719 2.00096 15.9328 2.06184L20.9041 7.03321C20.9631 7.09221 20.9956 7.17071 20.9956 7.25415C20.9956 7.33765 20.9631 7.41609 20.9041 7.47515L20.1677 8.21159C20.0458 8.33346 19.8475 8.3334 19.7258 8.21159L14.7544 3.24021C14.6325 3.1184 14.6325 2.92015 14.7544 2.79827ZM15.0437 4.41346L18.5526 7.92227L17.9596 8.51527L14.4508 5.00646L15.0437 4.41346ZM8.82883 19.5505L8.09239 20.2869C7.97058 20.4088 7.77226 20.4087 7.65045 20.2869L2.67908 15.3155C2.5572 15.1937 2.5572 14.9954 2.67908 14.8736L3.41551 14.1371C3.47645 14.0762 3.55645 14.0458 3.63651 14.0458C3.71651 14.0458 3.79658 14.0763 3.85745 14.1371L8.82883 19.1085C8.95064 19.2303 8.95064 19.4286 8.82883 19.5505ZM8.53951 17.9353L5.03064 14.4265L5.62358 13.8335L9.13239 17.3423L8.53951 17.9353ZM18.2938 19.0766L16.5263 17.9395L18.5568 15.909L19.6939 17.6766L18.2938 19.0766ZM15.7699 13.4933L16.8827 14.2092L14.8264 16.2655L14.1105 15.1526L15.7699 13.4933ZM14.8744 17.9044C14.6531 17.683 14.6531 17.3227 14.8744 17.1013L17.7185 14.2573C17.8258 14.15 17.9684 14.091 18.1201 14.091C18.2718 14.091 18.4143 14.15 18.5216 14.2573C18.743 14.4787 18.743 14.839 18.5216 15.0603H18.5216L15.6775 17.9043C15.4561 18.1258 15.0958 18.1257 14.8744 17.9044ZM18.8662 20.759C18.7145 20.759 18.572 20.6999 18.4646 20.5926C18.3574 20.4854 18.2983 20.3428 18.2983 20.1911C18.2983 20.0395 18.3574 19.8969 18.4646 19.7896L20.4068 17.8475C20.514 17.7402 20.6566 17.6811 20.8083 17.6811C20.96 17.6811 21.1026 17.7402 21.2098 17.8475C21.3171 17.9547 21.3761 18.0973 21.3761 18.249C21.3761 18.4007 21.3171 18.5432 21.2098 18.6505L19.2676 20.5926C19.1605 20.6999 19.0179 20.759 18.8662 20.759Z" fill="#0000CC"/>
</g>
<defs>
<linearGradient id="paint0_linear" x1="4.49938e-06" y1="15.7017" x2="32" y2="15.7017" gradientUnits="userSpaceOnUse">
<stop stop-color="#FFF3EE" stop-opacity="0"/>
<stop offset="0.2938" stop-color="#FFEADE" stop-opacity="0.373"/>
<stop offset="0.7874" stop-color="#FFD6BB"/>
</linearGradient>
<clipPath id="clip0">
<rect width="32" height="32" fill="white"/>
</clipPath>
</defs>
</svg>
