<svg width="32" height="32" viewBox="0 0 32 32" fill="none" xmlns="http://www.w3.org/2000/svg">
<g clip-path="url(#clip0)">
<path d="M28.7782 2.38244C26.5612 -0.0672429 22.6093 -0.727493 19.7163 0.868382C17.395 2.14894 8.33416 6.53632 5.83097 7.72569C4.07634 8.55938 2.32478 9.74988 1.65259 11.5726C0.838657 13.7798 1.86959 16.2917 3.44053 18.0429C5.01147 19.7942 7.07078 21.0211 8.86428 22.5436C10.6578 24.0661 12.2672 26.0774 12.3943 28.4265C12.4441 29.3475 12.2873 30.368 12.8356 31.1098C13.4128 31.8906 14.52 32.0124 15.491 31.9989C17.138 31.9762 18.8073 31.7526 20.3125 31.0834C21.8177 30.4142 23.1517 29.2622 23.8048 27.7499C25.2293 24.4513 23.1773 20.4105 24.6249 17.122C25.6143 14.8744 27.9893 13.5715 29.3834 11.5499C31.2592 8.83001 30.9952 4.83207 28.7782 2.38244Z" fill="url(#paint0_linear)"/>
<path opacity="0.1" d="M30.4924 25.1665L30.9916 23.6823C31.0597 23.4798 30.9091 23.2702 30.6954 23.2702H28.1884V19.5383C28.1884 19.0396 27.8927 18.5877 27.4346 18.3907C27.1869 18.2842 26.9206 18.1815 26.6385 18.0827C25.0456 15.0767 25.8221 11.7251 26.1307 10.6768C26.1925 10.4668 26.1411 10.24 25.9938 10.0782L24.2366 8.14728C24.0711 7.96541 23.8149 7.89791 23.5809 7.97372C22.913 8.18997 21.4074 8.56134 19.5359 8.29303C18.0613 8.08166 16.9814 7.27741 16.4252 6.76472C16.1845 6.54278 15.8157 6.54278 15.5749 6.76472C15.0188 7.27741 13.9389 8.08166 12.4642 8.29303C10.5927 8.56134 9.08718 8.19003 8.41924 7.97372C8.18531 7.89797 7.92906 7.96541 7.76356 8.14728L6.00631 10.0782C5.85899 10.24 5.80762 10.4668 5.86943 10.6768C6.17799 11.7251 6.95456 15.0767 5.36162 18.0827C5.07956 18.1815 4.81324 18.2842 4.56549 18.3907C4.10731 18.5877 3.81168 19.0396 3.81168 19.5383V23.2702H1.30468C1.09106 23.2702 0.940369 23.4798 1.00849 23.6823L1.50768 25.1665L1.00849 26.6507C0.940369 26.8532 1.09106 27.0628 1.30468 27.0628H5.68968C6.43343 27.0628 7.09293 26.5848 7.32443 25.878L7.45649 25.4748C8.75899 26.3178 10.4924 26.8962 12.6332 27.0222C13.2539 27.0587 13.8626 27.2081 14.4239 27.4753L15.7314 28.0979C15.9014 28.1788 16.0988 28.1788 16.2688 28.0979L17.5763 27.4753C18.1376 27.2081 18.7464 27.0587 19.367 27.0222C21.5079 26.8962 23.2412 26.3178 24.5437 25.4748L24.6758 25.878C24.9073 26.5848 25.5668 27.0628 26.3106 27.0628H30.6956C30.9092 27.0628 31.0599 26.8532 30.9917 26.6507L30.4924 25.1665Z" fill="#0000CC"/>
<path d="M5.68969 25.4683H1.30468C1.09106 25.4683 0.940369 25.2587 1.00849 25.0562L1.50768 23.572L1.00849 22.0878C0.940369 21.8853 1.09106 21.6757 1.30468 21.6757H8.17856L7.32444 24.2835C7.09294 24.9903 6.43344 25.4683 5.68969 25.4683Z" fill="#FF9D33"/>
<path d="M26.3105 25.4683H30.6955C30.9091 25.4683 31.0598 25.2587 30.9917 25.0562L30.4925 23.572L30.9917 22.0878C31.0598 21.8853 30.9091 21.6757 30.6955 21.6757H23.8215L24.6757 24.2835C24.9072 24.9903 25.5667 25.4683 26.3105 25.4683Z" fill="#FF9D33"/>
<path d="M3.81165 21.869L6.54821 23.0793L6.36702 20.6028C6.36702 20.6028 4.58871 20.9652 3.81165 21.869Z" fill="#FF7300"/>
<path d="M28.1883 21.869L25.4518 23.0793L25.633 20.6028C25.633 20.6028 27.4113 20.9652 28.1883 21.869Z" fill="#FF7300"/>
<path d="M26.7603 16.7102C25.0064 13.6492 25.8144 10.1565 26.1306 9.0823C26.1924 8.87236 26.141 8.64549 25.9937 8.48368L24.2365 6.5528C24.071 6.37092 23.8148 6.30349 23.5808 6.37924C22.9129 6.59555 21.4073 6.96686 19.5358 6.69855C18.0612 6.48717 16.9813 5.68292 16.4251 5.17024C16.1844 4.9483 15.8156 4.9483 15.5748 5.17024C15.0187 5.68292 13.9388 6.48717 12.4641 6.69855C10.5926 6.96686 9.08707 6.59555 8.41913 6.37924C8.1852 6.30349 7.92895 6.37092 7.76345 6.5528L6.0062 8.48368C5.85888 8.64555 5.80751 8.87236 5.86932 9.0823C6.18551 10.1565 6.99351 13.6492 5.23957 16.7102C3.22438 20.2271 5.94301 25.0339 12.6331 25.4277C13.2537 25.4642 13.8624 25.6136 14.4238 25.8809L15.7313 26.5034C15.9013 26.5844 16.0986 26.5844 16.2686 26.5034L17.5761 25.8809C18.1374 25.6136 18.7462 25.4642 19.3668 25.4277C26.0569 25.034 28.7754 20.2271 26.7603 16.7102Z" fill="#8383FF"/>
<path d="M26.2506 22.3409C24.3831 21.7409 21.8806 21.3065 19.0449 21.1234C18.3493 22.0453 17.2443 22.6415 15.9999 22.6415C14.7556 22.6415 13.6506 22.0453 12.9549 21.1234C10.1193 21.3065 7.61681 21.7409 5.74931 22.3409C4.72556 21.0303 4.36743 19.4715 4.72118 18.0065C6.66118 17.2071 9.61556 16.6253 13.0512 16.4096C13.7506 15.5578 14.8118 15.0146 15.9999 15.0146C17.1881 15.0146 18.2493 15.5578 18.9487 16.4096C22.3843 16.6253 25.3387 17.2071 27.2787 18.0065C27.6324 19.4715 27.2743 21.0303 26.2506 22.3409Z" fill="#6C6CFF"/>
<path d="M15.0955 24.4702C14.3597 24.1198 13.5621 23.9172 12.7248 23.8679C9.83553 23.6979 7.5419 22.545 6.58934 20.7839C5.99959 19.6938 6.00171 18.5229 6.59528 17.4871C7.48846 15.9283 7.92509 14.1247 7.89309 12.1262C7.87496 10.9978 7.70671 10.013 7.54478 9.31531C7.52153 9.21513 7.54871 9.11019 7.61796 9.03413L8.40265 8.17188C8.4789 8.08806 8.59403 8.05225 8.7044 8.078C9.35228 8.22906 10.1815 8.35481 11.1469 8.35481C11.6612 8.35481 12.179 8.31794 12.6859 8.24531C14.0052 8.05613 15.0708 7.49894 15.8195 6.97381C15.9282 6.89756 16.0718 6.89756 16.1805 6.97381C16.9292 7.49888 17.9948 8.05613 19.3141 8.24531C19.8212 8.318 20.3389 8.35481 20.8532 8.35481C21.8187 8.35481 22.6478 8.22906 23.2957 8.078C23.406 8.05225 23.5211 8.08813 23.5974 8.17188L24.3821 9.03413C24.4513 9.11019 24.4785 9.21513 24.4553 9.31531C24.2933 10.0131 24.1251 10.9979 24.107 12.1262C24.075 14.1247 24.5116 15.9283 25.4048 17.4871C25.9983 18.5229 26.0004 19.6938 25.4107 20.7839C24.4582 22.545 22.1645 23.6979 19.2752 23.8679C18.438 23.9172 17.6404 24.1198 16.9046 24.4702L16.1345 24.8369C16.0495 24.8774 15.9508 24.8774 15.8658 24.8369L15.0955 24.4702Z" fill="#FFF3EE"/>
<path d="M25.4106 20.784C25.195 21.1834 24.91 21.5515 24.5644 21.8834C22.9756 21.5203 21.0975 21.2559 19.045 21.1234C18.3494 22.0453 17.2444 22.6415 16 22.6415C14.7556 22.6415 13.6506 22.0453 12.955 21.1234C10.9025 21.2559 9.02436 21.5203 7.43561 21.8834C7.08998 21.5515 6.80498 21.1834 6.58936 20.784C5.99998 19.694 6.00186 18.5228 6.59561 17.4871C6.61873 17.4471 6.64123 17.4071 6.66311 17.3665C8.42436 16.899 10.6169 16.5621 13.0512 16.4096C13.7506 15.5578 14.8119 15.0146 16 15.0146C17.1881 15.0146 18.2494 15.5578 18.9487 16.4096C21.3831 16.5621 23.5756 16.899 25.3369 17.3665C25.3587 17.4071 25.3812 17.4471 25.4044 17.4871C25.9981 18.5228 26 19.694 25.4106 20.784Z" fill="#FFD6BB"/>
<path d="M11.6756 4.33548C11.6112 4.33548 11.5467 4.31561 11.4919 4.27579L11.2894 4.12861L11.0868 4.27579C10.9773 4.35536 10.829 4.35536 10.7194 4.27579C10.6099 4.19623 10.5641 4.05517 10.6059 3.92642L10.6833 3.68823L10.4808 3.54104C10.3713 3.46148 10.3254 3.32042 10.3673 3.19167C10.4091 3.06292 10.5291 2.97573 10.6644 2.97573H10.9148L10.9922 2.73754C11.034 2.60879 11.154 2.52161 11.2894 2.52161C11.4248 2.52161 11.5448 2.60879 11.5866 2.73754L11.6639 2.97573H11.9143C12.0497 2.97573 12.1697 3.06292 12.2115 3.19167C12.2533 3.32042 12.2075 3.46148 12.098 3.54104L11.8954 3.68823L11.9728 3.92642C12.0146 4.05517 11.9688 4.19623 11.8593 4.27579C11.8046 4.31554 11.7401 4.33548 11.6756 4.33548Z" fill="#FF9D33"/>
<path d="M8.56474 28.3924C8.5003 28.3924 8.4358 28.3726 8.38105 28.3327L8.17849 28.1856L7.97586 28.3327C7.8663 28.4122 7.71805 28.4123 7.60849 28.3327C7.49899 28.2532 7.45311 28.1121 7.49499 27.9834L7.57236 27.7452L7.3698 27.5981C7.2603 27.5185 7.21442 27.3774 7.2563 27.2487C7.29817 27.1199 7.41811 27.0327 7.55349 27.0327H7.80386L7.88124 26.7946C7.92305 26.6658 8.04305 26.5786 8.17843 26.5786C8.31386 26.5786 8.4338 26.6658 8.47561 26.7946L8.55299 27.0327H8.80343C8.9388 27.0327 9.0588 27.1199 9.10061 27.2486C9.14243 27.3774 9.09661 27.5184 8.98711 27.598L8.78449 27.7452L8.86186 27.9833C8.90368 28.1121 8.85786 28.2531 8.74836 28.3327C8.69368 28.3725 8.62918 28.3924 8.56474 28.3924Z" fill="#4D4DFF"/>
<path d="M11.452 29.0524C11.372 29.0524 11.2921 29.0219 11.231 28.9609L10.9208 28.6507L10.6105 28.9609C10.4884 29.0829 10.2906 29.0829 10.1686 28.9609C10.0465 28.8389 10.0465 28.641 10.1686 28.519L10.6998 27.9877C10.8219 27.8657 11.0197 27.8657 11.1418 27.9877L11.673 28.519C11.7951 28.641 11.7951 28.8389 11.673 28.9609C11.6119 29.0219 11.532 29.0524 11.452 29.0524Z" fill="#FF4D4D"/>
<path d="M28.5676 12.9157C28.4876 12.9157 28.4077 12.8852 28.3466 12.8242L28.0364 12.514L27.7261 12.8242C27.604 12.9462 27.4062 12.9462 27.2842 12.8242C27.1621 12.7021 27.1621 12.5043 27.2842 12.3823L27.8154 11.851C27.9375 11.729 28.1353 11.729 28.2574 11.851L28.7886 12.3823C28.9107 12.5043 28.9107 12.7022 28.7886 12.8242C28.7275 12.8852 28.6476 12.9157 28.5676 12.9157Z" fill="#4D4DFF"/>
<path d="M29.5115 15.0903C29.4315 15.0903 29.3515 15.0598 29.2905 14.9988L28.9802 14.6885L28.67 14.9988C28.5479 15.1208 28.3501 15.1208 28.228 14.9988C28.106 14.8767 28.106 14.6788 28.228 14.5568L28.7593 14.0256C28.8813 13.9036 29.0791 13.9036 29.2012 14.0256L29.7325 14.5568C29.8545 14.6789 29.8545 14.8768 29.7325 14.9988C29.6714 15.0598 29.5915 15.0903 29.5115 15.0903Z" fill="#FF9D33"/>
<path d="M3.81165 21.869C6.09415 20.6104 10.6951 19.7502 16 19.7502C21.3049 19.7502 25.906 20.6104 28.1884 21.869V17.944C28.1884 17.4452 27.8927 16.9933 27.4346 16.7963C24.9774 15.7397 20.7736 15.0432 16 15.0432C11.2264 15.0432 7.02265 15.7398 4.56546 16.7963C4.10727 16.9933 3.81165 17.4452 3.81165 17.944V21.869Z" fill="#FFAB66"/>
<path d="M16 21.366C18.1062 21.366 19.8135 19.6587 19.8135 17.5525C19.8135 15.4464 18.1062 13.739 16 13.739C13.8939 13.739 12.1865 15.4464 12.1865 17.5525C12.1865 19.6587 13.8939 21.366 16 21.366Z" fill="#FF4D4D"/>
<path d="M30.8221 23.5721L31.2878 22.1876C31.3517 21.9974 31.32 21.7865 31.2029 21.6236C31.0858 21.4606 30.896 21.3633 30.6954 21.3633H28.5009V17.944C28.5009 17.3187 28.1308 16.7556 27.558 16.5093C27.3376 16.4145 27.104 16.3231 26.8593 16.2348C25.3855 13.34 26.1573 10.0987 26.4304 9.17074C26.5225 8.85786 26.4438 8.51405 26.2249 8.27349L24.4677 6.34255C24.2205 6.07093 23.8346 5.96868 23.4846 6.08205C22.7915 6.30649 21.3625 6.6448 19.5802 6.38936C18.167 6.18674 17.1296 5.39468 16.637 4.94061C16.2739 4.60593 15.7263 4.60586 15.3631 4.94061C14.8705 5.39474 13.8331 6.18674 12.4199 6.38936C10.6376 6.64486 9.20864 6.30649 8.51545 6.08205C8.16526 5.96868 7.77958 6.07099 7.53239 6.34261L5.7752 8.27349C5.55626 8.51405 5.47751 8.85786 5.56964 9.17068C5.81145 9.99218 6.31676 12.1504 5.78789 14.4429C5.74908 14.6111 5.85395 14.7788 6.02214 14.8176C6.19051 14.8564 6.35808 14.7515 6.39689 14.5834C6.95901 12.1467 6.42495 9.86293 6.1692 8.99411C6.13783 8.88761 6.16333 8.77549 6.23739 8.69411L7.99458 6.76324C8.07695 6.67268 8.20576 6.63861 8.32295 6.67661C9.06758 6.91774 10.6015 7.28143 12.5086 7.00793C14.089 6.78136 15.2408 5.9033 15.7868 5.40005C15.9083 5.28793 16.0918 5.28793 16.2134 5.40005C16.7593 5.9033 17.9111 6.78136 19.4916 7.00793C21.3986 7.28136 22.9326 6.91768 23.6772 6.67661C23.7943 6.6388 23.9233 6.67274 24.0056 6.76324L25.7628 8.69411C25.8368 8.77555 25.8623 8.88768 25.831 8.99424C25.5584 9.92024 24.8181 13.0206 26.0466 15.9665C24.1749 15.4012 21.7738 15.0056 19.0969 14.8304C18.3402 13.9706 17.2328 13.4264 16.0001 13.4264C14.7673 13.4264 13.66 13.9705 12.9033 14.8304C9.4372 15.0572 6.43258 15.6534 4.44208 16.5093C3.86926 16.7556 3.4992 17.3187 3.4992 17.944V21.3633H1.30464C1.10395 21.3633 0.914201 21.4606 0.797139 21.6236C0.680014 21.7865 0.648326 21.9974 0.712264 22.1876L1.17795 23.5722L0.712264 24.9567C0.648326 25.147 0.680014 25.3578 0.797139 25.5208C0.914264 25.6837 1.10401 25.7811 1.30464 25.7811H5.68964C6.57076 25.7811 7.34708 25.2184 7.62133 24.3811L7.63014 24.3541C7.63883 24.3592 7.6472 24.3645 7.65595 24.3696C9.03914 25.1666 10.7076 25.6277 12.6148 25.7399C13.2096 25.7749 13.773 25.9173 14.2895 26.1632L15.5969 26.7858C15.725 26.8468 15.8625 26.8773 16 26.8773C16.1375 26.8773 16.275 26.8468 16.403 26.7858L17.7105 26.1632C18.227 25.9173 18.7904 25.7749 19.3851 25.7399C21.2924 25.6277 22.9608 25.1666 24.344 24.3695C24.3527 24.3645 24.3611 24.3591 24.3698 24.3541L24.3786 24.3811C24.6528 25.2184 25.4291 25.7811 26.3103 25.7811C26.4828 25.7811 26.6228 25.6411 26.6228 25.4686C26.6228 25.296 26.4828 25.1561 26.3103 25.1561C25.7001 25.1561 25.1625 24.7664 24.9725 24.1866L24.9141 24.0082C25.2556 23.7723 25.571 23.5157 25.857 23.2405C25.8647 23.2377 25.8725 23.2351 25.8802 23.2316L28.3147 22.155C28.3912 22.1212 28.4469 22.0601 28.4765 21.9884H30.6953L30.1961 23.4727C30.1743 23.5373 30.1743 23.6072 30.1961 23.6719L30.6953 25.1561H28.4244C28.2518 25.1561 28.1119 25.2961 28.1119 25.4686C28.1119 25.6412 28.2518 25.7811 28.4244 25.7811H30.6954C30.896 25.7811 31.0858 25.6838 31.2029 25.5209C31.32 25.3579 31.3517 25.1471 31.2878 24.9569L30.8221 23.5721ZM27.4521 21.853L26.7709 22.1543C26.8733 22.001 26.9679 21.8441 27.0548 21.6841C27.1921 21.7392 27.3246 21.7956 27.4521 21.853ZM27.3111 17.0834C27.6543 17.2309 27.876 17.5687 27.876 17.944V21.3594C26.0081 20.478 23.0493 19.8383 19.5954 19.5731C19.9326 18.9754 20.1261 18.2863 20.1261 17.5525C20.1261 16.8019 19.9236 16.0981 19.5719 15.491C22.7491 15.7362 25.4826 16.2972 27.3111 17.0834ZM16 14.0514C17.9305 14.0514 19.501 15.622 19.501 17.5525C19.501 19.4829 17.9305 21.0535 16 21.0535C14.0696 21.0535 12.499 19.4829 12.499 17.5525C12.499 15.622 14.0696 14.0514 16 14.0514ZM4.12414 17.944C4.12414 17.5688 4.34583 17.231 4.68895 17.0834C6.51745 16.2972 9.25101 15.7362 12.4283 15.491C12.0765 16.0981 11.8741 16.8019 11.8741 17.5525C11.8741 18.2863 12.0675 18.9754 12.4048 19.5731C8.9507 19.8384 5.9922 20.4778 4.1242 21.3594V17.944H4.12414ZM4.94489 21.6833C5.03189 21.8436 5.12664 22.0007 5.22914 22.1542L4.54695 21.8526C4.67464 21.7951 4.80726 21.7386 4.94489 21.6833ZM7.02739 24.1864C6.83739 24.7663 6.29983 25.156 5.68964 25.156H1.30464L1.80383 23.6718C1.82558 23.6072 1.82558 23.5372 1.80383 23.4726L1.30464 21.9883H3.52345C3.55308 22.06 3.6087 22.1211 3.68526 22.1549L6.14558 23.2429C6.43089 23.5172 6.74545 23.7729 7.08589 24.0081L7.02739 24.1864ZM19.3485 25.1159C18.6729 25.1556 18.0315 25.3181 17.4419 25.5989L16.1344 26.2214C16.0491 26.2621 15.9512 26.2621 15.8658 26.2214L14.5583 25.5989C13.9687 25.3181 13.3272 25.1556 12.6516 25.1159C9.35501 24.9219 6.72101 23.5628 5.53714 21.4629C7.3852 20.8242 9.92701 20.3676 12.8132 20.1701C13.5706 21.0904 14.7179 21.6785 16.0001 21.6785C17.2823 21.6785 18.4297 21.0905 19.187 20.1701C22.0733 20.3676 24.6149 20.8247 26.4627 21.4635C25.2786 23.5631 22.6448 24.9219 19.3485 25.1159Z" fill="#0000CC"/>
<path d="M16.2218 15.2044L16.6921 16.6517H18.2138C18.4398 16.6517 18.5337 16.9409 18.3509 17.0737L17.1198 17.9681L17.5901 19.4154C17.6599 19.6303 17.414 19.809 17.2311 19.6762L16 18.7817L14.7689 19.6761C14.5861 19.8089 14.3401 19.6302 14.4099 19.4153L14.8802 17.9681L13.6491 17.0736C13.4663 16.9408 13.5602 16.6516 13.7862 16.6516H15.3079L15.7782 15.2044C15.848 14.9895 16.152 14.9895 16.2218 15.2044Z" fill="white"/>
<path d="M16.1173 9.19466L16.3658 9.95941H17.1699C17.2894 9.95941 17.339 10.1122 17.2424 10.1824L16.5918 10.655L16.8403 11.4198C16.8772 11.5334 16.7472 11.6278 16.6506 11.5576L16 11.085L15.3495 11.5577C15.2528 11.6279 15.1228 11.5334 15.1598 11.4199L15.4083 10.6551L14.7577 10.1825C14.6611 10.1123 14.7108 9.95948 14.8302 9.95948H15.6343L15.8828 9.19472C15.9197 9.0811 16.0804 9.0811 16.1173 9.19466Z" fill="#FF8B00"/>
<path d="M19.933 10.2629L20.1815 11.0277H20.9856C21.105 11.0277 21.1546 11.1805 21.058 11.2507L20.4075 11.7233L20.656 12.488C20.6928 12.6016 20.5629 12.696 20.4663 12.6258L19.8157 12.1532L19.1651 12.6258C19.0685 12.696 18.9385 12.6016 18.9755 12.488L19.224 11.7233L18.5734 11.2507C18.4768 11.1805 18.5265 11.0277 18.6458 11.0277H19.45L19.6985 10.2629C19.7354 10.1493 19.8961 10.1493 19.933 10.2629Z" fill="#FFAB66"/>
<path d="M12.3015 10.2629L12.55 11.0277H13.3541C13.4735 11.0277 13.5232 11.1805 13.4265 11.2507L12.776 11.7233L13.0245 12.488C13.0614 12.6016 12.9314 12.696 12.8348 12.6258L12.1842 12.1532L11.5337 12.6258C11.437 12.696 11.307 12.6016 11.344 12.488L11.5925 11.7233L10.9419 11.2507C10.8453 11.1805 10.895 11.0277 11.0144 11.0277H11.8185L12.067 10.2629C12.1039 10.1493 12.2645 10.1493 12.3015 10.2629Z" fill="#FFAB66"/>
</g>
<defs>
<linearGradient id="paint0_linear" x1="1.63284" y1="5.41388" x2="32.257" y2="23.3534" gradientUnits="userSpaceOnUse">
<stop offset="0.1024" stop-color="white" stop-opacity="0"/>
<stop offset="0.3189" stop-color="#EEEEFF" stop-opacity="0.302"/>
<stop offset="0.5982" stop-color="#DEDEFF" stop-opacity="0.691"/>
<stop offset="0.8205" stop-color="#D9D9FF"/>
</linearGradient>
<clipPath id="clip0">
<rect width="32" height="32" fill="white"/>
</clipPath>
</defs>
</svg>
