<svg width="38" height="38" viewBox="0 0 38 38" fill="none" xmlns="http://www.w3.org/2000/svg">
<path d="M36.5568 18.8698L33.5506 11.7228H35.8358V8.19769C35.8358 6.41847 34.3882 4.97092 32.609 4.97092H22.3198C22.4955 4.54822 22.5921 4.08435 22.5921 3.59845C22.5921 1.61455 20.9775 0 18.9936 0C17.0097 0 15.3952 1.61455 15.3952 3.59845C15.3952 4.08435 15.4917 4.54822 15.6677 4.97092H5.37825C3.59903 4.97092 2.15176 6.41847 2.15176 8.19769V11.7228H4.47255L1.44466 18.8698H0V21.0712C0 24.5212 2.80669 27.3279 6.2567 27.3279C9.70671 27.3279 12.5143 24.5212 12.5143 21.0712V18.8698H11.0714L8.06491 11.7228H15.4694V30.4938H10.2758V37.9872H27.7114V30.4938H22.5179V11.7228H29.958L26.9301 18.8698H25.4857V21.0712C25.4857 24.5212 28.2924 27.3279 31.7424 27.3279C35.1924 27.3279 38 24.5212 38 21.0712V18.8698H36.5568ZM4.37746 9.49681V8.19769C4.37746 7.64569 4.82625 7.1969 5.37825 7.1969H32.609C33.161 7.1969 33.6101 7.64569 33.6101 8.19769V9.49681H4.37746ZM3.86169 18.8698L6.26801 13.1909L8.65692 18.8698H3.86169ZM29.3474 18.8698L31.7537 13.1909L34.1427 18.8698H29.3474ZM17.6212 3.59845C17.6212 2.84177 18.2369 2.22569 18.9936 2.22569C19.7506 2.22569 20.3664 2.84177 20.3664 3.59845C20.3664 4.35513 19.7506 4.97092 18.9936 4.97092C18.2369 4.97092 17.6212 4.35513 17.6212 3.59845ZM6.2567 25.1022C4.04289 25.1022 2.23932 23.3073 2.22569 21.0955H10.2886C10.2744 23.3073 8.47137 25.1022 6.2567 25.1022ZM25.4857 32.7197V35.7616H12.5018V32.7197H25.4857ZM20.2922 30.4938H17.6954V11.7228H20.2922V30.4938ZM31.7424 25.1022C29.5286 25.1022 27.7248 23.3073 27.7114 21.0955H35.7743C35.7601 23.3073 33.9571 25.1022 31.7424 25.1022Z" fill="#745285"/>
</svg>
