<svg width="58" height="58" viewBox="0 0 58 58" fill="none" xmlns="http://www.w3.org/2000/svg">
<path d="M55.2812 19.9375H49.3C47.1643 19.9398 45.0682 19.3605 43.2368 18.2616C41.4054 17.1628 39.9078 15.586 38.9048 13.7004L37.7959 11.6213C36.6777 9.51959 34.8431 7.88839 32.625 7.02366V5.4375C32.625 4.47609 32.2431 3.55406 31.5633 2.87424C30.8834 2.19442 29.9614 1.8125 29 1.8125C28.0386 1.8125 27.1166 2.19442 26.4367 2.87424C25.7569 3.55406 25.375 4.47609 25.375 5.4375V7.02366C23.1569 7.8884 21.3223 9.5196 20.204 11.6213L19.0952 13.7004C18.0922 15.586 16.5946 17.1628 14.7632 18.2616C12.9318 19.3605 10.8357 19.9398 8.69998 19.9375H2.71875C2.4784 19.9375 2.24789 20.033 2.07794 20.2029C1.90798 20.3729 1.8125 20.6034 1.8125 20.8438V24.4688C1.8125 24.7091 1.90798 24.9396 2.07794 25.1096C2.24789 25.2795 2.4784 25.375 2.71875 25.375H8.67486L5.70895 33.5312H4.53125C4.2909 33.5313 4.06039 33.6267 3.89044 33.7967C3.72048 33.9666 3.625 34.1971 3.625 34.4375C3.625 36.3603 4.38884 38.2044 5.74848 39.564C7.10811 40.9237 8.95218 41.6875 10.875 41.6875C12.7978 41.6875 14.6419 40.9237 16.0015 39.564C17.3612 38.2044 18.125 36.3603 18.125 34.4375C18.125 34.1971 18.0295 33.9666 17.8596 33.7967C17.6896 33.6267 17.4591 33.5313 17.2188 33.5312H16.0411L13.0751 25.375H15.2857C17.9199 25.3753 20.4646 24.4191 22.4469 22.6842L24.8319 20.5973C25.0051 20.4464 25.1864 20.3051 25.375 20.1739V44.1923L23.9086 47.125H21.75C21.6093 47.125 21.4705 47.1578 21.3447 47.2207C21.2189 47.2836 21.1094 47.375 21.025 47.4875L18.5782 50.75H14.5C14.2596 50.75 14.0291 50.8455 13.8592 51.0154C13.6892 51.1854 13.5938 51.4159 13.5938 51.6562V55.2812C13.5938 55.5216 13.6892 55.7521 13.8592 55.9221C14.0291 56.092 14.2596 56.1875 14.5 56.1875H43.5C43.7404 56.1875 43.9709 56.092 44.1408 55.9221C44.3108 55.7521 44.4062 55.5216 44.4062 55.2812V51.6562C44.4062 51.4159 44.3108 51.1854 44.1408 51.0154C43.9709 50.8455 43.7404 50.75 43.5 50.75H39.4218L36.975 47.4875C36.8906 47.375 36.7811 47.2836 36.6553 47.2207C36.5295 47.1578 36.3907 47.125 36.25 47.125H34.0914L32.625 44.1923V20.1739C32.8136 20.3051 32.9949 20.4464 33.1681 20.5973H33.1681L35.5531 22.6842C37.5354 24.4191 40.0801 25.3753 42.7143 25.375H44.9249L41.959 33.5312H40.7812C40.5409 33.5313 40.3104 33.6267 40.1404 33.7967C39.9705 33.9666 39.875 34.1971 39.875 34.4375C39.875 36.3603 40.6388 38.2044 41.9985 39.564C43.3581 40.9237 45.2022 41.6875 47.125 41.6875C49.0478 41.6875 50.8919 40.9237 52.2515 39.564C53.6112 38.2044 54.375 36.3603 54.375 34.4375C54.375 34.1971 54.2795 33.9666 54.1096 33.7967C53.9396 33.6267 53.7091 33.5313 53.4688 33.5312H52.291L49.3251 25.375H55.2812C55.5216 25.375 55.7521 25.2795 55.9221 25.1096C56.092 24.9396 56.1875 24.7091 56.1875 24.4688V20.8438C56.1875 20.6034 56.092 20.3729 55.9221 20.2029C55.7521 20.033 55.5216 19.9375 55.2812 19.9375ZM27.1875 5.4375C27.1875 4.95679 27.3785 4.49578 27.7184 4.15587C28.0583 3.81596 28.5193 3.625 29 3.625C29.4807 3.625 29.9417 3.81596 30.2816 4.15587C30.6215 4.49578 30.8125 4.95679 30.8125 5.4375V6.51002C29.6143 6.28833 28.3857 6.28833 27.1875 6.51002V5.4375ZM10.875 39.875C9.5904 39.8734 8.34772 39.4177 7.36654 38.5885C6.38537 37.7594 5.72885 36.6101 5.513 35.3438H16.237C16.0211 36.6101 15.3646 37.7594 14.3835 38.5885C13.4023 39.4177 12.1596 39.8734 10.875 39.875ZM14.1124 33.5312H7.63764L10.6036 25.375H11.1464L14.1124 33.5312ZM42.5938 54.375H15.4062V52.5625H42.5938V54.375ZM37.1562 50.75H20.8438L22.2031 48.9375H35.7969L37.1562 50.75ZM30.9082 44.8116L32.0649 47.125H25.9351L27.0918 44.8116C27.1547 44.6857 27.1875 44.547 27.1875 44.4062V19.2979C28.3697 18.9424 29.6303 18.9424 30.8125 19.2979V44.4062C30.8125 44.547 30.8453 44.6857 30.9082 44.8116ZM47.125 39.875C45.8404 39.8734 44.5977 39.4177 43.6165 38.5885C42.6354 37.7594 41.9789 36.6101 41.763 35.3438H52.487C52.2711 36.6101 51.6146 37.7594 50.6335 38.5885C49.6523 39.4177 48.4096 39.8734 47.125 39.875ZM50.3624 33.5312H43.8876L46.8535 25.375H47.3965L50.3624 33.5312ZM54.375 23.5625H42.7143C40.5191 23.5628 38.3985 22.766 36.7467 21.3202L34.3616 19.2333H34.3616C32.8773 17.9346 30.9722 17.2188 29 17.2188C27.0278 17.2188 25.1226 17.9346 23.6384 19.2333L21.2533 21.3202C19.6015 22.766 17.4809 23.5628 15.2857 23.5625H3.625V21.75H8.69998C11.1643 21.7527 13.5829 21.0842 15.696 19.8163C17.8092 18.5484 19.5372 16.729 20.6945 14.5533L21.8033 12.4742C22.4989 11.1699 23.536 10.0791 24.8036 9.31856C26.0712 8.558 27.5217 8.15625 29 8.15625C30.4782 8.15625 31.9287 8.558 33.1963 9.31856C34.4639 10.0791 35.501 11.1699 36.1967 12.4742L37.3055 14.5533C38.4629 16.729 40.1908 18.5484 42.304 19.8163C44.4171 21.0842 46.8357 21.7527 49.3 21.75H54.375V23.5625Z" fill="white"/>
<path d="M29 9.96875C28.4623 9.96875 27.9366 10.1282 27.4895 10.4269C27.0424 10.7257 26.694 11.1503 26.4882 11.6471C26.2824 12.1439 26.2286 12.6905 26.3335 13.2179C26.4384 13.7453 26.6973 14.2297 27.0776 14.6099C27.4578 14.9902 27.9422 15.2491 28.4696 15.354C28.997 15.4589 29.5436 15.4051 30.0404 15.1993C30.5372 14.9935 30.9618 14.6451 31.2606 14.198C31.5593 13.7509 31.7187 13.2252 31.7187 12.6875C31.7179 11.9667 31.4312 11.2756 30.9215 10.766C30.4119 10.2563 29.7208 9.96956 29 9.96875ZM29 13.5937C28.8208 13.5937 28.6455 13.5406 28.4965 13.441C28.3475 13.3414 28.2313 13.1999 28.1627 13.0343C28.0941 12.8687 28.0762 12.6865 28.1112 12.5107C28.1461 12.3349 28.2324 12.1734 28.3592 12.0467C28.4859 11.9199 28.6474 11.8336 28.8232 11.7987C28.999 11.7637 29.1812 11.7816 29.3468 11.8502C29.5124 11.9188 29.6539 12.035 29.7535 12.184C29.8531 12.333 29.9062 12.5083 29.9062 12.6875C29.906 12.9278 29.8104 13.1581 29.6405 13.328C29.4706 13.4979 29.2403 13.5935 29 13.5937Z" fill="white"/>
</svg>
