<svg width="116" height="116" viewBox="0 0 116 116" fill="none" xmlns="http://www.w3.org/2000/svg">
<path d="M110.562 39.875H98.6C94.3285 39.8796 90.1364 38.7209 86.4736 36.5233C82.8108 34.3256 79.8157 31.1719 77.8096 27.4008L75.5919 23.2426C73.3554 19.0392 69.6862 15.7768 65.25 14.0473V10.875C65.25 8.95218 64.4862 7.10811 63.1265 5.74848C61.7669 4.38884 59.9228 3.625 58 3.625C56.0772 3.625 54.2331 4.38884 52.8735 5.74848C51.5138 7.10811 50.75 8.95218 50.75 10.875V14.0473C46.3138 15.7768 42.6446 19.0392 40.408 23.2426L38.1905 27.4008C36.1844 31.1719 33.1892 34.3256 29.5264 36.5233C25.8636 38.7209 21.6715 39.8796 17.4 39.875H5.4375C4.9568 39.875 4.49578 40.066 4.15587 40.4059C3.81597 40.7458 3.625 41.2068 3.625 41.6875V48.9375C3.625 49.4182 3.81597 49.8792 4.15587 50.2191C4.49578 50.559 4.9568 50.75 5.4375 50.75H17.3497L11.4179 67.0625H9.0625C8.5818 67.0625 8.12078 67.2535 7.78087 67.5934C7.44097 67.9333 7.25 68.3943 7.25 68.875C7.25 72.7206 8.77767 76.4088 11.497 79.128C14.2162 81.8473 17.9044 83.375 21.75 83.375C25.5956 83.375 29.2838 81.8473 32.003 79.128C34.7223 76.4088 36.25 72.7206 36.25 68.875C36.25 68.3943 36.059 67.9333 35.7191 67.5934C35.3792 67.2535 34.9182 67.0625 34.4375 67.0625H32.0821L26.1503 50.75H30.5713C35.8398 50.7506 40.9293 48.8383 44.8938 45.3685L49.6638 41.1945C50.0102 40.8928 50.3728 40.6101 50.75 40.3478V88.3846L47.8173 94.25H43.5C43.2186 94.25 42.9411 94.3155 42.6894 94.4414C42.4377 94.5672 42.2188 94.7499 42.05 94.975L37.1563 101.5H29C28.5193 101.5 28.0583 101.691 27.7184 102.031C27.3785 102.371 27.1875 102.832 27.1875 103.312V110.562C27.1875 111.043 27.3785 111.504 27.7184 111.844C28.0583 112.184 28.5193 112.375 29 112.375H87C87.4807 112.375 87.9417 112.184 88.2816 111.844C88.6215 111.504 88.8125 111.043 88.8125 110.562V103.312C88.8125 102.832 88.6215 102.371 88.2816 102.031C87.9417 101.691 87.4807 101.5 87 101.5H78.8437L73.95 94.975C73.7812 94.7499 73.5623 94.5672 73.3106 94.4414C73.0589 94.3155 72.7814 94.25 72.5 94.25H68.1827L65.25 88.3846V40.3478C65.6272 40.6101 65.9898 40.8928 66.3362 41.1945H66.3361L71.1062 45.3685C75.0707 48.8383 80.1602 50.7506 85.4287 50.75H89.8497L83.9179 67.0625H81.5625C81.0818 67.0625 80.6208 67.2535 80.2809 67.5934C79.941 67.9333 79.75 68.3943 79.75 68.875C79.75 72.7206 81.2777 76.4088 83.997 79.128C86.7162 81.8473 90.4044 83.375 94.25 83.375C98.0956 83.375 101.784 81.8473 104.503 79.128C107.222 76.4088 108.75 72.7206 108.75 68.875C108.75 68.3943 108.559 67.9333 108.219 67.5934C107.879 67.2535 107.418 67.0625 106.938 67.0625H104.582L98.6503 50.75H110.562C111.043 50.75 111.504 50.559 111.844 50.2191C112.184 49.8792 112.375 49.4182 112.375 48.9375V41.6875C112.375 41.2068 112.184 40.7458 111.844 40.4059C111.504 40.066 111.043 39.875 110.562 39.875ZM54.375 10.875C54.375 9.91359 54.7569 8.99156 55.4367 8.31174C56.1166 7.63192 57.0386 7.25 58 7.25C58.9614 7.25 59.8834 7.63192 60.5633 8.31174C61.2431 8.99156 61.625 9.91359 61.625 10.875V13.02C59.2287 12.5767 56.7713 12.5767 54.375 13.02V10.875ZM21.75 79.75C19.1808 79.7467 16.6954 78.8354 14.7331 77.1771C12.7707 75.5188 11.4577 73.2202 11.026 70.6875H32.474C32.0423 73.2202 30.7293 75.5188 28.7669 77.1771C26.8046 78.8354 24.3192 79.7467 21.75 79.75ZM28.2247 67.0625H15.2753L21.2071 50.75H22.2929L28.2247 67.0625ZM85.1875 108.75H30.8125V105.125H85.1875V108.75ZM74.3125 101.5H41.6875L44.4062 97.875H71.5938L74.3125 101.5ZM61.8164 89.6232L64.1298 94.25H51.8702L54.1836 89.6232C54.3095 89.3715 54.375 89.0939 54.375 88.8125V38.5957C56.7394 37.8848 59.2606 37.8848 61.625 38.5957V88.8125C61.625 89.0939 61.6905 89.3715 61.8164 89.6232ZM94.25 79.75C91.6808 79.7467 89.1954 78.8354 87.2331 77.1771C85.2707 75.5188 83.9577 73.2202 83.526 70.6875H104.974C104.542 73.2202 103.229 75.5188 101.267 77.1771C99.3046 78.8354 96.8192 79.7467 94.25 79.75ZM100.725 67.0625H87.7753L93.7071 50.75H94.7929L100.725 67.0625ZM108.75 47.125H85.4287C81.0383 47.1256 76.797 45.532 73.4933 42.6404L68.7232 38.4665H68.7231C65.7546 35.8691 61.9443 34.4375 57.9999 34.4375C54.0556 34.4375 50.2453 35.8691 47.2768 38.4665L42.5067 42.6404C39.203 45.532 34.9617 47.1256 30.5713 47.125H7.25V43.5H17.4C22.3286 43.5054 27.1657 42.1684 31.3921 39.6326C35.6184 37.0968 39.0744 33.458 41.389 29.1066L43.6065 24.9484C44.9979 22.3397 47.072 20.1582 49.6072 18.6371C52.1425 17.116 55.0434 16.3125 57.9999 16.3125C60.9565 16.3125 63.8574 17.116 66.3926 18.6371C68.9279 20.1582 71.002 22.3397 72.3934 24.9484L74.6111 29.1066C76.9257 33.458 80.3817 37.0969 84.608 39.6326C88.8343 42.1684 93.6714 43.5054 98.6 43.5H108.75V47.125Z" fill="#331B4D"/>
<path d="M58 19.9375C56.9246 19.9375 55.8733 20.2564 54.9791 20.8539C54.0849 21.4514 53.388 22.3006 52.9764 23.2942C52.5649 24.2877 52.4572 25.381 52.667 26.4358C52.8768 27.4906 53.3947 28.4594 54.1551 29.2199C54.9156 29.9803 55.8844 30.4982 56.9392 30.708C57.994 30.9178 59.0873 30.8101 60.0808 30.3986C61.0744 29.987 61.9236 29.2901 62.5211 28.3959C63.1186 27.5017 63.4375 26.4504 63.4375 25.375C63.4359 23.9334 62.8625 22.5513 61.8431 21.5319C60.8237 20.5125 59.4416 19.9391 58 19.9375ZM58 27.1875C57.6415 27.1875 57.2911 27.0812 56.993 26.882C56.695 26.6829 56.4627 26.3998 56.3255 26.0686C56.1883 25.7374 56.1524 25.373 56.2223 25.0214C56.2923 24.6698 56.4649 24.3468 56.7184 24.0934C56.9718 23.8399 57.2948 23.6673 57.6464 23.5973C57.998 23.5274 58.3624 23.5633 58.6936 23.7005C59.0248 23.8376 59.3079 24.07 59.507 24.368C59.7062 24.6661 59.8125 25.0165 59.8125 25.375C59.8119 25.8555 59.6208 26.3162 59.281 26.656C58.9412 26.9958 58.4805 27.1869 58 27.1875Z" fill="#FB7E68"/>
</svg>
