<svg width="137" height="17" viewBox="0 0 137 17" fill="none" xmlns="http://www.w3.org/2000/svg">
<path d="M7.721 16H12.091L7.455 10.11L11.73 5.702H7.455L3.769 9.293V1.902H0.159V16H3.769V13.473L4.833 12.39L7.721 16ZM14.9523 4.562C16.2823 4.562 17.1563 3.726 17.1563 2.586C17.1563 1.503 16.2823 0.724 14.9523 0.724C13.6223 0.724 12.7483 1.56 12.7483 2.643C12.7483 3.726 13.6223 4.562 14.9523 4.562ZM13.1473 16H16.7573V5.702H13.1473V16ZM24.2713 16.171C27.6723 16.171 30.0853 13.948 30.0853 10.832C30.0853 7.735 27.6723 5.531 24.2713 5.531C20.9083 5.531 18.4573 7.735 18.4573 10.832C18.4573 13.948 20.9083 16.171 24.2713 16.171ZM24.2713 13.302C23.0553 13.302 22.1053 12.409 22.1053 10.832C22.1053 9.274 23.0553 8.4 24.2713 8.4C25.5063 8.4 26.4373 9.274 26.4373 10.832C26.4373 12.409 25.5063 13.302 24.2713 13.302ZM35.5006 16.171C38.8446 16.171 40.5926 14.689 40.5926 12.789C40.5926 8.704 34.5316 10.243 34.5316 8.818C34.5316 8.438 34.9686 8.096 36.1846 8.096C37.0966 8.096 38.1226 8.286 39.1486 8.856L40.2316 6.405C39.2056 5.835 37.6096 5.531 36.1656 5.531C32.9356 5.531 31.1496 7.013 31.1496 8.951C31.1496 13.074 37.2296 11.497 37.2296 12.884C37.2296 13.321 36.8306 13.587 35.6146 13.587C34.3606 13.587 32.9736 13.226 32.0236 12.637L30.9406 15.107C31.9476 15.734 33.7526 16.171 35.5006 16.171ZM48.8553 5.531C47.6393 5.531 46.5563 5.911 45.7583 6.652V1.902H42.1483V16H45.7583V11.022C45.7583 9.312 46.6513 8.59 47.8103 8.59C48.8553 8.59 49.5013 9.217 49.5013 10.699V16H53.1113V10.11C53.1113 6.918 51.2683 5.531 48.8553 5.531ZM62.5978 5.702V10.661C62.5978 12.39 61.7238 13.093 60.6598 13.093C59.5768 13.093 58.9498 12.466 58.9498 10.87V5.702H55.3398V11.459C55.3398 14.727 57.1828 16.171 59.7098 16.171C60.8878 16.171 61.9898 15.753 62.7688 14.898V16H66.2078V5.702H62.5978ZM76.095 16H80.465L75.829 10.11L80.104 5.702H75.829L72.143 9.293V1.902H68.533V16H72.143V13.473L73.207 12.39L76.095 16ZM88.5929 5.702V10.661C88.5929 12.39 87.7189 13.093 86.6549 13.093C85.5719 13.093 84.9449 12.466 84.9449 10.87V5.702H81.3349V11.459C81.3349 14.727 83.1779 16.171 85.7049 16.171C86.8829 16.171 87.9849 15.753 88.7639 14.898V16H92.2029V5.702H88.5929ZM107.942 5.531C106.46 5.531 105.187 6.12 104.37 7.146C103.648 6.044 102.451 5.531 101.045 5.531C99.8291 5.531 98.7461 5.949 97.9671 6.785V5.702H94.5281V16H98.1381V10.889C98.1381 9.293 98.8981 8.59 99.9621 8.59C100.931 8.59 101.52 9.217 101.52 10.699V16H105.13V10.889C105.13 9.293 105.89 8.59 106.935 8.59C107.885 8.59 108.493 9.217 108.493 10.699V16H112.103V10.11C112.103 6.918 110.336 5.531 107.942 5.531ZM115.902 16.171C117.137 16.171 118.068 15.278 118.068 14.024C118.068 12.732 117.137 11.896 115.902 11.896C114.686 11.896 113.736 12.732 113.736 14.024C113.736 15.278 114.686 16.171 115.902 16.171ZM121.568 4.562C122.898 4.562 123.772 3.726 123.772 2.586C123.772 1.503 122.898 0.724 121.568 0.724C120.238 0.724 119.364 1.56 119.364 2.643C119.364 3.726 120.238 4.562 121.568 4.562ZM119.763 16H123.373V5.702H119.763V16ZM133.053 1.902V6.595C132.369 5.873 131.4 5.531 130.203 5.531C127.391 5.531 125.13 7.564 125.13 10.832C125.13 14.119 127.391 16.171 130.203 16.171C131.533 16.171 132.54 15.791 133.224 14.974V16H136.663V1.902H133.053ZM130.963 13.302C129.728 13.302 128.797 12.409 128.797 10.832C128.797 9.274 129.728 8.4 130.963 8.4C132.179 8.4 133.11 9.274 133.11 10.832C133.11 12.409 132.179 13.302 130.963 13.302Z" fill="#FF7C5E"/>
</svg>
