<svg width="58" height="58" viewBox="0 0 58 58" fill="none" xmlns="http://www.w3.org/2000/svg">
<g clip-path="url(#clip0)">
<path d="M20.8589 39.43C20.8589 29.0827 29.3215 20.712 39.703 20.8613C49.7591 21.006 57.9361 29.253 57.9998 39.3099C58.0354 44.942 55.563 49.9967 51.6345 53.4253C51.2199 53.7871 51.2796 54.4474 51.7532 54.7277L55.2525 56.798C55.8182 57.1328 55.5807 58 54.9234 57.9998L39.0779 57.996C28.9839 57.8085 20.8589 49.5686 20.8589 39.43Z" fill="#7ACAA6"/>
<path d="M55.2523 56.7982L51.753 54.7279C51.2794 54.4477 51.2198 53.7873 51.6343 53.4255C55.5628 49.9969 58.0353 44.9421 57.9997 39.3101C57.9361 29.2532 49.759 21.0062 39.7029 20.8615C39.0185 20.8517 38.3427 20.8799 37.6768 20.9422C47.0455 21.8258 54.4382 29.7497 54.4986 39.3101C54.5342 44.9422 52.0618 49.9969 48.1332 53.4255C47.7186 53.7873 47.7783 54.4476 48.2519 54.7279L51.7512 56.7982C52.3138 57.1311 52.0816 57.99 51.4324 57.9992L54.9232 58C55.5805 58.0001 55.8179 57.1328 55.2523 56.7982Z" fill="#57BE92"/>
<path d="M40.1399 20.8731C39.9947 20.8676 39.849 20.8634 39.703 20.8613C29.3214 20.7119 20.8589 29.0827 20.8589 39.43C20.8589 39.6672 20.8648 39.9029 20.8736 40.1379C31.0135 39.0675 39.0699 31.013 40.1399 20.8731Z" fill="#57BE92"/>
<path d="M37.1408 18.5702C37.1408 8.22299 28.6782 -0.147704 18.2967 0.00160053C8.24068 0.146374 0.0636995 8.39336 3.54266e-05 18.4502C-0.0355349 24.0824 2.43683 29.1371 6.36531 32.5657C6.77992 32.9275 6.72022 33.5878 6.24659 33.8681L2.74733 35.9384C2.18161 36.2731 2.41916 37.1404 3.07641 37.1402L18.9219 37.1363C29.0158 36.9487 37.1408 28.7089 37.1408 18.5702Z" fill="#8795DE"/>
<path d="M18.2971 0.00196674C17.8006 0.00910346 17.3089 0.0367441 16.8223 0.082623C26.2565 0.965877 33.6402 8.90542 33.6402 18.5706C33.6402 28.7092 25.5151 36.9491 15.4213 37.1367L3.06657 37.1398C3.07008 37.1398 3.07325 37.1407 3.07688 37.1407L18.9223 37.1368C29.0161 36.9492 37.1412 28.7094 37.1412 18.5707C37.1411 8.22335 28.6787 -0.147338 18.2971 0.00196674Z" fill="#6C7FD8"/>
<path d="M18.5705 33.0973C19.6475 33.0973 20.5206 32.2243 20.5206 31.1473C20.5206 30.0703 19.6475 29.1973 18.5705 29.1973C17.4936 29.1973 16.6205 30.0703 16.6205 31.1473C16.6205 32.2243 17.4936 33.0973 18.5705 33.0973Z" fill="white"/>
<path d="M18.5704 25.701C17.6037 25.701 16.8199 24.9172 16.8199 23.9505V17.7166C16.8199 16.7498 17.6037 15.9661 18.5704 15.9661C19.7358 15.9661 20.8203 15.4998 21.6241 14.6531C22.4274 13.8071 22.8362 12.6976 22.7756 11.5286C22.6619 9.33899 20.8534 7.58913 18.6583 7.54495C16.5209 7.50168 14.6941 9.05839 14.4002 11.1655C14.3731 11.3592 14.3594 11.5575 14.3594 11.7551C14.3594 12.7218 13.5756 13.5056 12.6089 13.5056C11.6421 13.5056 10.8583 12.7218 10.8583 11.7551C10.8583 11.3961 10.8834 11.0348 10.9327 10.6815C11.4644 6.87138 14.7334 4.04309 18.5711 4.04309C18.6236 4.04309 18.6761 4.04366 18.7287 4.04468C22.7501 4.12567 26.0634 7.33334 26.2718 11.3472C26.3828 13.4845 25.6338 15.5147 24.163 17.0639C23.1212 18.1611 21.7761 18.922 20.3209 19.2638V23.9506C20.3209 24.9172 19.5373 25.701 18.5704 25.701Z" fill="white"/>
<path d="M39.4294 41.3798C40.5064 41.3798 41.3795 40.5067 41.3795 39.4298C41.3795 38.3528 40.5064 37.4797 39.4294 37.4797C38.3525 37.4797 37.4794 38.3528 37.4794 39.4298C37.4794 40.5067 38.3525 41.3798 39.4294 41.3798Z" fill="white"/>
<path d="M48.1819 41.3798C49.2589 41.3798 50.132 40.5067 50.132 39.4298C50.132 38.3528 49.2589 37.4797 48.1819 37.4797C47.105 37.4797 46.2319 38.3528 46.2319 39.4298C46.2319 40.5067 47.105 41.3798 48.1819 41.3798Z" fill="white"/>
<path d="M30.6769 41.3798C31.7539 41.3798 32.627 40.5067 32.627 39.4298C32.627 38.3528 31.7539 37.4797 30.6769 37.4797C29.6 37.4797 28.7269 38.3528 28.7269 39.4298C28.7269 40.5067 29.6 41.3798 30.6769 41.3798Z" fill="white"/>
</g>
<defs>
<clipPath id="clip0">
<rect width="58" height="58" fill="white"/>
</clipPath>
</defs>
</svg>
