<svg width="14" height="12" viewBox="0 0 14 12" fill="none" xmlns="http://www.w3.org/2000/svg">
<path d="M4.568 5.344L5.976 0.255999H2.808L0.952 4.864C0.216 6.624 0.0880001 7.232 0.0880001 8.064C0.0880001 9.888 1.4 11.136 3.192 11.136C4.952 11.136 6.264 9.92 6.264 8.064C6.264 6.752 5.624 5.792 4.568 5.344ZM12.12 5.344L13.528 0.255999H10.36L8.504 4.864C7.768 6.624 7.64 7.232 7.64 8.064C7.64 9.888 8.952 11.136 10.744 11.136C12.504 11.136 13.816 9.92 13.816 8.064C13.816 6.752 13.176 5.792 12.12 5.344Z" fill="#FFD5BB"/>
</svg>
