<svg width="38" height="34" viewBox="0 0 38 34" fill="none" xmlns="http://www.w3.org/2000/svg">
<path d="M27.0794 6.85638V3.81342H22.8765C22.3917 2.12958 20.8378 0.894531 19 0.894531C17.1622 0.894531 15.6083 2.12958 15.1235 3.81342H10.9206V6.85638H0V33.213H38V6.85638H27.0794ZM13.1472 6.03998H17.1944V4.9267C17.1944 3.93083 18.0038 3.12109 19 3.12109C19.9962 3.12109 20.8056 3.93083 20.8056 4.9267V6.03998H24.8528V9.37982H13.1472V6.03998ZM35.7734 30.9865H2.22656V9.08295H10.9206V11.6064H27.0794V9.08295H35.7734V30.9865Z" fill="#745285"/>
<path d="M15.2496 18.4383L12.6943 13.3076L10.1769 18.4563L4.50732 19.3008L8.62646 23.2871L7.67786 28.9402L12.7413 26.2544L17.8244 28.9031L16.8349 23.2573L20.9253 19.2413L15.2496 18.4383ZM14.8527 24.8434L12.7323 23.7391L10.6199 24.8591L11.0157 22.5012L9.29733 20.8385L11.6628 20.486L12.7128 18.3383L13.7786 20.4787L16.1463 20.8133L14.4399 22.4884L14.8527 24.8434Z" fill="#745285"/>
<path d="M23.6804 16.0122H32.444V18.2388H23.6804V16.0122Z" fill="#745285"/>
<path d="M23.6804 20.3813H32.444V22.6079H23.6804V20.3813Z" fill="#745285"/>
<path d="M23.6804 24.7502H32.444V26.9768H23.6804V24.7502Z" fill="#745285"/>
</svg>
