<svg width="31" height="31" viewBox="0 0 31 31" fill="none" xmlns="http://www.w3.org/2000/svg">
<path d="M15.2 0C6.81632 0 0 6.81632 0 15.2C0 23.5837 6.81632 30.4 15.2 30.4C23.5837 30.4 30.4 23.5837 30.4 15.2C30.4 6.81632 23.5837 0 15.2 0ZM21.6 21.6H8.8C8.28749 21.6 7.87251 21.1837 7.87251 20.6725C7.87251 20.16 8.28877 19.745 8.8 19.745L21.6 19.7438C22.1125 19.7438 22.5275 20.16 22.5275 20.6713C22.5275 21.1838 22.1125 21.6 21.6 21.6V21.6ZM21.6 16.1274H8.8C8.28749 16.1274 7.87251 15.7111 7.87251 15.1999C7.87251 14.6874 8.28877 14.2724 8.8 14.2724H21.6C22.1125 14.2724 22.5275 14.6886 22.5275 15.1999C22.5275 15.7124 22.1125 16.1274 21.6 16.1274ZM21.6 10.6237H8.8C8.28749 10.6237 7.87251 10.2074 7.87251 9.69619C7.87251 9.18368 8.28752 8.79994 8.8 8.79994H21.6C22.1125 8.79994 22.5275 9.21619 22.5275 9.72743C22.5275 10.2399 22.1125 10.6237 21.6 10.6237Z" fill="#132237"/>
</svg>
