<svg width="259" height="155" viewBox="0 0 259 155" fill="none" xmlns="http://www.w3.org/2000/svg">
<g clip-path="url(#clip0)">
<path d="M198.297 153.247C194.981 150.443 192.966 146.012 193.495 141.699C194.023 137.386 197.294 133.421 201.538 132.505C205.782 131.589 210.619 134.124 211.908 138.274C212.618 130.274 213.435 121.938 217.684 115.125C221.532 108.956 228.196 104.542 235.418 103.753C242.64 102.963 250.244 105.945 254.748 111.652C259.253 117.358 260.355 125.653 257.201 132.204C254.877 137.03 250.595 140.622 246.109 143.544C231.614 152.906 214.228 156.713 197.151 154.265L198.297 153.247Z" fill="#F2F2F2"/>
<path d="M247.606 106.111C241.647 110.969 236.18 116.403 231.285 122.334C223.623 131.584 217.423 141.955 212.901 153.086C212.57 153.898 213.887 154.251 214.214 153.448C221.613 135.359 233.425 119.415 248.57 107.075C249.25 106.521 248.281 105.561 247.606 106.111Z" fill="white"/>
<path d="M83.3763 152.485C87.9307 148.633 90.6971 142.547 89.9716 136.623C89.2461 130.699 84.7527 125.253 78.924 123.995C73.0954 122.737 66.4511 126.219 64.6807 131.919C63.7064 120.93 62.5837 109.482 56.7475 100.124C51.4629 91.6514 42.31 85.5886 32.3902 84.504C22.4705 83.4194 12.0263 87.5159 5.83973 95.3532C-0.346851 103.191 -1.86161 114.584 2.47131 123.582C5.66322 130.211 11.5438 135.144 17.7053 139.157C37.3623 151.96 61.7469 157.3 84.9492 153.882" fill="#F2F2F2"/>
<path d="M15.6492 87.7429C23.8342 94.4163 31.3431 101.88 38.0672 110.026C44.7924 118.164 50.7132 126.935 55.7465 136.217C58.5599 141.424 61.0872 146.781 63.3172 152.263C63.7718 153.379 61.9626 153.864 61.513 152.761C57.5632 143.095 52.6765 133.84 46.923 125.129C41.1974 116.449 34.6442 108.345 27.3555 100.932C23.2329 96.7409 18.8832 92.7801 14.3262 89.0672C13.3921 88.3058 14.7228 86.9878 15.6492 87.7429L15.6492 87.7429Z" fill="white"/>
<path d="M185.914 154.661H77.2534V43.0606C77.2534 19.3169 96.5511 0 120.271 0H142.897C166.617 0 185.914 19.3169 185.914 43.0606V154.661Z" fill="#F2F2F2"/>
<path d="M163.289 154.661H77.2534V43.0605C77.2297 33.9624 80.1078 25.0943 85.4687 17.7473C85.6663 17.4776 85.8635 17.2115 86.0667 16.9483C88.6598 13.544 91.7456 10.5459 95.2223 8.05288C95.4187 7.90984 95.6158 7.76929 95.8159 7.62873C98.7251 5.61349 101.872 3.96608 105.185 2.72399C105.382 2.64934 105.582 2.57455 105.783 2.50281C108.779 1.43243 111.885 0.69922 115.044 0.316726C115.239 0.289951 115.44 0.268999 115.641 0.248047C118.719 -0.0813803 121.824 -0.0813803 124.902 0.248047C125.102 0.268999 125.303 0.289948 125.501 0.317013C128.659 0.699532 131.764 1.43265 134.76 2.50283C134.96 2.57456 135.161 2.64935 135.358 2.72414C138.63 3.95057 141.74 5.5734 144.618 7.55642C144.818 7.69392 145.018 7.83448 145.216 7.97504C147.164 9.36751 148.995 10.9188 150.688 12.6131C152.046 13.9721 153.312 15.4207 154.476 16.9492C154.679 17.2115 154.876 17.4776 155.073 17.7468C160.435 25.0939 163.313 33.9622 163.289 43.0605V154.661Z" fill="#CCCCCC"/>
<path d="M156.293 104.746C158.924 104.746 161.056 102.612 161.056 99.9784C161.056 97.3451 158.924 95.2104 156.293 95.2104C153.662 95.2104 151.53 97.3451 151.53 99.9784C151.53 102.612 153.662 104.746 156.293 104.746Z" fill="#745285"/>
<path d="M177.013 151.318H173.363L171.626 137.226L177.013 137.226L177.013 151.318Z" fill="#FFB8B8"/>
<path d="M170.756 150.274H177.795V154.711H166.324C166.324 154.128 166.439 153.551 166.661 153.013C166.884 152.475 167.211 151.986 167.622 151.574C168.034 151.162 168.522 150.835 169.06 150.612C169.598 150.389 170.174 150.274 170.756 150.274Z" fill="#2F2E41"/>
<path d="M195.173 151.318H191.523L189.786 137.226L195.173 137.226L195.173 151.318Z" fill="#FFB8B8"/>
<path d="M188.916 150.274H195.954V154.711H184.484C184.484 154.128 184.599 153.551 184.821 153.013C185.044 152.475 185.37 151.986 185.782 151.574C186.193 151.162 186.682 150.835 187.22 150.612C187.757 150.389 188.334 150.274 188.916 150.274Z" fill="#2F2E41"/>
<path d="M158.704 100.923C158.441 100.536 158.267 100.095 158.192 99.6334C158.118 99.1713 158.146 98.6986 158.274 98.2484C158.402 97.7983 158.627 97.3818 158.933 97.0281C159.24 96.6745 159.62 96.3924 160.047 96.2016L172.454 61.9717L178.559 65.3067L164.392 98.0181C164.665 98.7573 164.657 99.5709 164.371 100.305C164.084 101.039 163.538 101.642 162.837 102C162.136 102.358 161.328 102.446 160.566 102.247C159.804 102.049 159.142 101.578 158.704 100.923Z" fill="#FFB8B8"/>
<path d="M193.308 107.355C192.903 107.122 192.553 106.803 192.284 106.42C192.015 106.037 191.833 105.6 191.751 105.14C191.668 104.679 191.688 104.206 191.809 103.753C191.929 103.301 192.147 102.881 192.447 102.522L188.603 66.3125L195.551 66.6302L197.148 102.247C197.717 102.792 198.067 103.526 198.13 104.312C198.194 105.097 197.968 105.879 197.495 106.508C197.021 107.138 196.334 107.572 195.562 107.728C194.79 107.884 193.989 107.751 193.308 107.355Z" fill="#FFB8B8"/>
<path d="M182.225 55.6314C186.263 55.6314 189.536 52.3545 189.536 48.3123C189.536 44.27 186.263 40.9932 182.225 40.9932C178.186 40.9932 174.913 44.27 174.913 48.3123C174.913 52.3545 178.186 55.6314 182.225 55.6314Z" fill="#FFB8B8"/>
<path d="M193.262 99.1198H171.218L171.244 98.9481C171.284 98.6914 175.173 73.1894 172.305 64.8464C172.017 64.0265 172.042 63.129 172.376 62.3267C172.709 61.5244 173.327 60.8739 174.111 60.5006H174.111C178.211 58.5679 186.081 56.1882 192.724 61.9635C193.701 62.8273 194.464 63.907 194.953 65.117C195.442 66.327 195.643 67.6343 195.54 68.9354L193.262 99.1198Z" fill="#745285"/>
<path d="M175.451 76.958L165.527 74.9426L170.179 63.9078C170.457 62.8391 171.148 61.9244 172.099 61.3646C173.05 60.8048 174.184 60.6454 175.253 60.9215C176.321 61.1976 177.237 61.8866 177.798 62.8373C178.36 63.7881 178.522 64.923 178.248 65.9931L175.451 76.958Z" fill="#745285"/>
<path d="M188.162 80.6999L187.566 67.0095C187.113 64.4359 188.585 62.003 190.848 61.6053C193.113 61.2091 195.323 62.9941 195.778 65.5866L198.02 78.3789L188.162 80.6999Z" fill="#745285"/>
<path d="M192.528 97.4805C196.075 111.003 196.462 128.195 195.505 146.948L190.742 146.352L182.109 110.592L177.345 146.948L171.987 146.65C170.386 126.973 168.827 110.081 171.391 98.9705L192.528 97.4805Z" fill="#2F2E41"/>
<path d="M187.042 53.9683C185.678 55.4228 183.145 54.642 182.967 52.655C182.953 52.5007 182.954 52.3455 182.97 52.1914C183.062 51.3112 183.57 50.5122 183.448 49.5828C183.421 49.3515 183.335 49.1311 183.198 48.9425C182.111 47.4855 179.56 49.5942 178.534 48.2752C177.905 47.4664 178.644 46.193 178.162 45.2891C177.525 44.096 175.637 44.6846 174.454 44.0312C173.137 43.3042 173.216 41.2821 174.083 40.0521C175.14 38.5521 176.993 37.7517 178.823 37.6364C180.653 37.521 182.471 38.0162 184.18 38.6828C186.121 39.4401 188.046 40.4867 189.241 42.1954C190.694 44.2734 190.833 47.0671 190.107 49.4969C189.665 50.975 188.156 52.7806 187.042 53.9683Z" fill="#2F2E41"/>
<path d="M250.064 154.853H30.2725C30.1787 154.852 30.0888 154.815 30.0225 154.748C29.9563 154.682 29.9191 154.592 29.9191 154.498C29.9191 154.404 29.9563 154.314 30.0225 154.247C30.0888 154.181 30.1787 154.143 30.2725 154.143H250.064C250.157 154.143 250.247 154.181 250.313 154.247C250.38 154.314 250.417 154.404 250.417 154.498C250.417 154.592 250.38 154.682 250.313 154.748C250.247 154.815 250.157 154.852 250.064 154.853Z" fill="#3F3D56"/>
<path d="M139.622 122.328H100.921C100.411 122.331 99.921 122.131 99.5583 121.773C99.1955 121.414 98.9896 120.926 98.9856 120.416V33.9464C98.9896 33.4363 99.1955 32.9485 99.5583 32.5901C99.921 32.2317 100.411 32.0319 100.921 32.0347H139.622C140.132 32.0319 140.622 32.2317 140.984 32.5901C141.347 32.9485 141.553 33.4363 141.557 33.9464V120.416C141.553 120.926 141.347 121.414 140.984 121.773C140.622 122.131 140.132 122.331 139.622 122.328Z" fill="white"/>
<path d="M141.557 60.0137H98.9856V60.6097H141.557V60.0137Z" fill="#CCCCCC"/>
<path d="M141.706 94.0181H99.1345V94.6141H141.706V94.0181Z" fill="#CCCCCC"/>
<path d="M112.978 32.0347H112.382V122.626H112.978V32.0347Z" fill="#CCCCCC"/>
<path d="M127.863 32.0347H127.267V122.626H127.863V32.0347Z" fill="#CCCCCC"/>
</g>
<defs>
<clipPath id="clip0">
<rect width="259" height="155" fill="white"/>
</clipPath>
</defs>
</svg>
