<svg width="58" height="58" viewBox="0 0 58 58" fill="none" xmlns="http://www.w3.org/2000/svg">
<path d="M40.7812 7.25H30.4664L28.8086 3.93464C28.4898 3.29698 27.9997 2.76069 27.3933 2.38587C26.7868 2.01105 26.088 1.81251 25.375 1.8125C24.6621 1.81249 23.9633 2.011 23.3568 2.3858C22.7503 2.7606 22.2602 3.29687 21.9414 3.93453L20.2836 7.25H9.96875C8.76741 7.25138 7.61567 7.72921 6.76619 8.57869C5.91671 9.42817 5.43887 10.5799 5.4375 11.7813V51.6562C5.43887 52.8576 5.91671 54.0093 6.76619 54.8588C7.61567 55.7083 8.76741 56.1861 9.96875 56.1875H35.3438V54.375H9.96875C9.24795 54.3742 8.5569 54.0875 8.04721 53.5778C7.53753 53.0681 7.25082 52.3771 7.25 51.6562V11.7813C7.25082 11.0604 7.53753 10.3694 8.04721 9.85971C8.5569 9.35003 9.24795 9.06333 9.96875 9.0625H13.0678L14.1035 10.875H9.96875C9.7284 10.875 9.4979 10.9705 9.32795 11.1404C9.158 11.3104 9.06251 11.5409 9.0625 11.7813V51.6562C9.06251 51.8966 9.158 52.1271 9.32795 52.2971C9.4979 52.467 9.7284 52.5625 9.96875 52.5625H35.3438V50.75H10.875V12.6875H15.1393L16.4319 14.9496C16.5111 15.0883 16.6257 15.2036 16.7639 15.2838C16.902 15.364 17.059 15.4063 17.2188 15.4063H33.5312C33.691 15.4063 33.848 15.364 33.9862 15.2838C34.1243 15.2036 34.2389 15.0883 34.3181 14.9496L35.6107 12.6875H39.875V19.0312H41.6875V11.7813C41.6875 11.5409 41.592 11.3104 41.4221 11.1404C41.2521 10.9705 41.0216 10.875 40.7812 10.875H36.6465L37.6822 9.0625H40.7812C41.5021 9.06333 42.1931 9.35003 42.7028 9.85971C43.2125 10.3694 43.4992 11.0604 43.5 11.7813V19.0312H45.3125V11.7813C45.3111 10.5799 44.8333 9.42817 43.9838 8.57869C43.1343 7.72921 41.9826 7.25138 40.7812 7.25ZM23.5625 4.74509C23.7308 4.4085 23.9895 4.12544 24.3097 3.9276C24.6298 3.72977 24.9987 3.62499 25.375 3.625C25.7514 3.62501 26.1203 3.72982 26.4404 3.92767C26.7605 4.12552 27.0192 4.40861 27.1875 4.7452L28.4399 7.25H22.3101L23.5625 4.74509ZM33.0053 13.5938H17.7447L15.1553 9.0625H35.5947L33.0053 13.5938Z" fill="white"/>
<path d="M25.375 6.34375C25.8755 6.34375 26.2812 5.93801 26.2812 5.4375C26.2812 4.93699 25.8755 4.53125 25.375 4.53125C24.8745 4.53125 24.4688 4.93699 24.4688 5.4375C24.4688 5.93801 24.8745 6.34375 25.375 6.34375Z" fill="white"/>
<path d="M52.5625 56.1875V29C52.5601 26.8376 51.7 24.7644 50.1709 23.2354C48.6418 21.7063 46.5687 20.8462 44.4063 20.8438H38.2765C37.6292 20.8418 36.9904 20.991 36.411 21.2795C35.8315 21.568 35.3275 21.9879 34.939 22.5056L34.0339 21.9022C33.8851 21.803 33.7102 21.75 33.5313 21.75H29C28.8317 21.75 28.6667 21.7969 28.5236 21.8854C28.3804 21.9738 28.2647 22.1004 28.1894 22.251C28.1142 22.4015 28.0823 22.57 28.0974 22.7376C28.1125 22.9052 28.174 23.0654 28.275 23.2L30.9937 26.825C31.0641 26.9188 31.152 26.998 31.2525 27.0584L33.5313 28.4257V33.5313C33.5312 33.689 33.5724 33.8439 33.6506 33.9809L37.1563 40.1157V56.1875H38.9688V40.7813H50.75V56.1875H52.5625ZM45.8683 31.9701L45.3953 32.6797L45.395 32.68L45.3949 32.6803L45.0378 33.2159L32.9046 25.9359L33.8827 23.9797L45.8683 31.9701ZM32.0649 23.5625L31.5639 24.5644L30.8125 23.5625H32.0649ZM38.5884 38.9688L35.3438 33.2905V29.5132L44.8462 35.2147C45.0459 35.3345 45.2841 35.3729 45.5113 35.3218C45.7386 35.2707 45.9374 35.134 46.0665 34.9402L46.4004 34.4394L47.5286 35.1915C47.6276 35.2577 47.7387 35.3037 47.8555 35.3268C47.9723 35.35 48.0925 35.35 48.2093 35.3267C48.326 35.3034 48.4371 35.2573 48.536 35.191C48.635 35.1248 48.7199 35.0397 48.786 34.9406C48.852 34.8416 48.8979 34.7304 48.921 34.6136C48.9441 34.4968 48.9439 34.3766 48.9205 34.2598C48.8971 34.1431 48.8509 34.0321 48.7846 33.9332C48.7183 33.8343 48.6331 33.7495 48.534 33.6835L47.4058 32.9313L47.879 32.2215C47.9451 32.1224 47.9909 32.0114 48.014 31.8946C48.0371 31.7779 48.037 31.6577 48.0137 31.541C47.9903 31.4243 47.9442 31.3134 47.878 31.2145C47.8118 31.1156 47.7267 31.0307 47.6277 30.9647L46.7086 30.352L47.879 28.5965C47.9451 28.4974 47.9909 28.3864 48.0141 28.2696C48.0372 28.1529 48.037 28.0327 48.0137 27.916C47.9904 27.7993 47.9443 27.6884 47.878 27.5895C47.8118 27.4906 47.7267 27.4057 47.6277 27.3397L42.1902 23.7147L41.1848 25.2228L45.8683 28.3451L45.2006 29.3467L36.4509 23.5136C36.6728 23.2445 36.9517 23.0281 37.2674 22.8798C37.5831 22.7316 37.9277 22.6552 38.2765 22.6563H44.4063C46.0882 22.6582 47.7006 23.3271 48.8899 24.5164C50.0792 25.7057 50.7481 27.3181 50.75 29V38.9688H38.5884Z" fill="white"/>
<path d="M13.5938 18.125H17.2188V19.9375H13.5938V18.125Z" fill="white"/>
<path d="M27.1875 18.125H33.5312V19.9375H27.1875V18.125Z" fill="white"/>
<path d="M19.0312 18.125H25.375V19.9375H19.0312V18.125Z" fill="white"/>
<path d="M13.5938 23.5625H20.8438V25.375H13.5938V23.5625Z" fill="white"/>
<path d="M22.6562 23.5625H26.2812V25.375H22.6562V23.5625Z" fill="white"/>
<path d="M13.5938 29H17.2188V30.8125H13.5938V29Z" fill="white"/>
<path d="M19.0312 29H29.9062V30.8125H19.0312V29Z" fill="white"/>
<path d="M17.2188 34.4375H21.75V36.25H17.2188V34.4375Z" fill="white"/>
<path d="M13.5938 34.4375H15.4062V36.25H13.5938V34.4375Z" fill="white"/>
<path d="M23.5625 34.4375H30.8125V36.25H23.5625V34.4375Z" fill="white"/>
<path d="M19.9375 39.875H26.2812V41.6875H19.9375V39.875Z" fill="white"/>
<path d="M13.5938 39.875H18.125V41.6875H13.5938V39.875Z" fill="white"/>
<path d="M28.0938 39.875H34.4375V41.6875H28.0938V39.875Z" fill="white"/>
<path d="M17.2188 45.3125H29V47.125H17.2188V45.3125Z" fill="white"/>
<path d="M13.5938 45.3125H15.4062V47.125H13.5938V45.3125Z" fill="white"/>
<path d="M30.8125 45.3125H35.3438V47.125H30.8125V45.3125Z" fill="white"/>
</svg>
