<svg width="116" height="116" viewBox="0 0 116 116" fill="none" xmlns="http://www.w3.org/2000/svg">
<path d="M81.5625 14.5H60.9327L57.6172 7.86929C56.9796 6.59395 55.9994 5.52137 54.7865 4.77174C53.5736 4.0221 52.1759 3.62502 50.7501 3.625C49.3242 3.62498 47.9265 4.02201 46.7136 4.7716C45.5007 5.5212 44.5205 6.59375 43.8828 7.86906L40.5673 14.5H19.9375C17.5348 14.5028 15.2313 15.4584 13.5324 17.1574C11.8334 18.8563 10.8777 21.1598 10.875 23.5625V103.312C10.8777 105.715 11.8334 108.019 13.5324 109.718C15.2313 111.417 17.5348 112.372 19.9375 112.375H70.6875V108.75H19.9375C18.4959 108.748 17.1138 108.175 16.0944 107.156C15.0751 106.136 14.5016 104.754 14.5 103.312V23.5625C14.5016 22.1209 15.0751 20.7388 16.0944 19.7194C17.1138 18.7001 18.4959 18.1267 19.9375 18.125H26.1357L28.207 21.75H19.9375C19.4568 21.75 18.9958 21.941 18.6559 22.2809C18.316 22.6208 18.125 23.0818 18.125 23.5625V103.312C18.125 103.793 18.316 104.254 18.6559 104.594C18.9958 104.934 19.4568 105.125 19.9375 105.125H70.6875V101.5H21.75V25.375H30.2785L32.8637 29.8992C33.0223 30.1766 33.2513 30.4072 33.5277 30.5676C33.8041 30.728 34.118 30.8125 34.4375 30.8125H67.0625C67.382 30.8125 67.6959 30.728 67.9723 30.5676C68.2487 30.4072 68.4777 30.1766 68.6363 29.8992L71.2215 25.375H79.75V38.0625H83.375V23.5625C83.375 23.0818 83.184 22.6208 82.8441 22.2809C82.5042 21.941 82.0432 21.75 81.5625 21.75H73.293L75.3643 18.125H81.5625C83.0041 18.1267 84.3862 18.7001 85.4056 19.7194C86.4249 20.7388 86.9984 22.1209 87 23.5625V38.0625H90.625V23.5625C90.6223 21.1598 89.6666 18.8563 87.9676 17.1574C86.2687 15.4584 83.9652 14.5028 81.5625 14.5ZM47.125 9.49018C47.4616 8.81701 47.9791 8.25087 48.6194 7.85521C49.2596 7.45954 49.9974 7.24998 50.7501 7.25C51.5027 7.25003 52.2405 7.45963 52.8808 7.85534C53.521 8.25104 54.0384 8.81721 54.375 9.49041L56.8798 14.5H44.6201L47.125 9.49018ZM66.0107 27.1875H35.4893L30.3107 18.125H71.1893L66.0107 27.1875Z" fill="#351A4C"/>
<path d="M50.75 12.6875C51.751 12.6875 52.5625 11.876 52.5625 10.875C52.5625 9.87398 51.751 9.0625 50.75 9.0625C49.749 9.0625 48.9375 9.87398 48.9375 10.875C48.9375 11.876 49.749 12.6875 50.75 12.6875Z" fill="#351A4C"/>
<path d="M105.125 112.375V58C105.12 53.6752 103.4 49.5289 100.342 46.4707C97.2837 43.4126 93.1374 41.6924 88.8125 41.6875H76.5529C75.2584 41.6836 73.9808 41.982 72.8219 42.5591C71.6631 43.1361 70.655 43.9758 69.878 45.0112L68.0679 43.8045C67.7702 43.606 67.4204 43.5001 67.0625 43.5H58C57.6634 43.5 57.3335 43.5938 57.0472 43.7707C56.7608 43.9477 56.5294 44.2009 56.3789 44.5019C56.2283 44.803 56.1646 45.14 56.1948 45.4753C56.225 45.8105 56.348 46.1307 56.5499 46.4L61.9874 53.65C62.1282 53.8375 62.3039 53.9961 62.5049 54.1168L67.0625 56.8514V67.0625C67.0625 67.3779 67.1448 67.6879 67.3013 67.9617L74.3125 80.2315V112.375H77.9375V81.5625H101.5V112.375H105.125ZM91.7366 63.9402L90.7905 65.3594L90.7901 65.36L90.7897 65.3606L90.0757 66.4317L65.8093 51.8718L67.7655 47.9595L91.7366 63.9402ZM64.1298 47.125L63.1279 49.1289L61.625 47.125H64.1298ZM77.1769 77.9375L70.6875 66.5811V59.0264L89.6925 70.4293C90.0918 70.6691 90.5682 70.7458 91.0227 70.6436C91.4772 70.5414 91.8748 70.2681 92.1331 69.8804L92.8008 68.8788L95.0572 70.3831C95.2552 70.5154 95.4774 70.6073 95.711 70.6537C95.9445 70.7001 96.185 70.6999 96.4185 70.6533C96.6521 70.6067 96.8742 70.5146 97.0721 70.3821C97.27 70.2496 97.4398 70.0794 97.5719 69.8813C97.704 69.6831 97.7958 69.4609 97.8419 69.2273C97.8881 68.9936 97.8878 68.7532 97.841 68.5197C97.7942 68.2862 97.7018 68.0642 97.5691 67.8664C97.4365 67.6686 97.2662 67.4989 97.0679 67.367L94.8116 65.8627L95.7581 64.4429C95.8901 64.2449 95.9819 64.0228 96.0281 63.7893C96.0743 63.5558 96.0741 63.3155 96.0274 63.0821C95.9807 62.8487 95.8885 62.6267 95.756 62.429C95.6236 62.2312 95.4535 62.0615 95.2554 61.9295L93.4173 60.7041L95.7581 57.1929C95.8901 56.9949 95.9819 56.7728 96.0281 56.5393C96.0743 56.3058 96.0741 56.0655 96.0274 55.8321C95.9807 55.5987 95.8885 55.3767 95.756 55.179C95.6236 54.9812 95.4535 54.8115 95.2554 54.6795L84.3804 47.4295L82.3697 50.4456L91.7366 56.6902L90.4012 58.6933L72.9018 47.0271C73.3457 46.489 73.9034 46.0561 74.5347 45.7596C75.1661 45.4631 75.8554 45.3104 76.5529 45.3125H88.8125C92.1763 45.3163 95.4012 46.6542 97.7798 49.0328C100.158 51.4113 101.496 54.6363 101.5 58V77.9375H77.1769Z" fill="#FF7C5E"/>
<path d="M27.1875 36.25H34.4375V39.875H27.1875V36.25Z" fill="#351A4C"/>
<path d="M54.375 36.25H67.0625V39.875H54.375V36.25Z" fill="#351A4C"/>
<path d="M38.0625 36.25H50.75V39.875H38.0625V36.25Z" fill="#351A4C"/>
<path d="M27.1875 47.125H41.6875V50.75H27.1875V47.125Z" fill="#351A4C"/>
<path d="M45.3125 47.125H52.5625V50.75H45.3125V47.125Z" fill="#351A4C"/>
<path d="M27.1875 58H34.4375V61.625H27.1875V58Z" fill="#351A4C"/>
<path d="M38.0625 58H59.8125V61.625H38.0625V58Z" fill="#351A4C"/>
<path d="M34.4375 68.875H43.5V72.5H34.4375V68.875Z" fill="#351A4C"/>
<path d="M27.1875 68.875H30.8125V72.5H27.1875V68.875Z" fill="#351A4C"/>
<path d="M47.125 68.875H61.625V72.5H47.125V68.875Z" fill="#351A4C"/>
<path d="M39.875 79.75H52.5625V83.375H39.875V79.75Z" fill="#351A4C"/>
<path d="M27.1875 79.75H36.25V83.375H27.1875V79.75Z" fill="#351A4C"/>
<path d="M56.1875 79.75H68.875V83.375H56.1875V79.75Z" fill="#351A4C"/>
<path d="M34.4375 90.625H58V94.25H34.4375V90.625Z" fill="#351A4C"/>
<path d="M27.1875 90.625H30.8125V94.25H27.1875V90.625Z" fill="#351A4C"/>
<path d="M61.625 90.625H70.6875V94.25H61.625V90.625Z" fill="#351A4C"/>
</svg>
